{"glyphs":{"0":{"ha":868,"x_min":0,"x_max":0,"o":"m 433 -17 b 88 492 172 -17 88 208 b 433 997 88 774 172 997 b 781 492 696 997 781 774 b 433 -17 781 208 696 -17 m 433 110 b 640 492 594 110 640 278 b 433 871 640 704 594 871 b 228 492 274 871 228 704 b 433 110 228 278 274 110 "},"1":{"ha":679,"x_min":0,"x_max":0,"o":"m 78 119 l 294 119 l 294 753 b 296 814 294 783 296 814 l 293 814 b 246 757 293 814 282 792 l 154 667 l 71 753 l 306 981 l 428 981 l 428 119 l 642 119 l 642 0 l 78 0 "},"2":{"ha":794,"x_min":0,"x_max":0,"o":"m 83 0 b 76 75 79 26 76 51 b 557 706 76 425 557 475 b 381 868 557 803 483 868 b 182 743 251 868 182 743 l 81 811 b 390 997 81 811 169 997 b 700 715 571 997 700 885 b 229 119 700 393 232 343 l 715 119 l 715 0 l 83 0 "},"3":{"ha":788,"x_min":0,"x_max":0,"o":"m 131 221 b 368 114 131 221 226 114 b 568 293 478 114 568 188 b 340 474 568 414 461 474 l 272 474 l 240 547 l 454 799 b 515 863 486 836 515 863 l 515 865 b 432 861 515 865 486 861 l 100 861 l 100 981 l 686 981 l 686 893 l 419 586 b 707 299 549 572 707 489 b 374 -17 707 131 575 -17 b 56 117 174 -17 56 117 "},"4":{"ha":842,"x_min":0,"x_max":0,"o":"m 43 349 l 496 981 l 653 981 l 653 379 l 786 379 l 786 263 l 653 263 l 653 0 l 518 0 l 518 263 l 43 263 m 518 379 l 518 736 b 524 833 518 782 524 833 l 521 833 b 472 753 521 833 499 788 l 194 382 l 194 379 "},"5":{"ha":782,"x_min":0,"x_max":0,"o":"m 143 219 b 358 114 143 219 219 114 b 574 313 474 114 574 193 b 350 514 574 431 476 514 b 185 465 254 514 185 465 l 106 494 l 154 981 l 649 981 l 649 861 l 274 861 l 250 654 b 243 603 249 625 243 603 l 246 603 b 372 633 246 603 300 633 b 714 314 579 633 714 490 b 367 -17 714 125 565 -17 b 67 119 165 -17 67 119 "},"6":{"ha":832,"x_min":0,"x_max":0,"o":"m 449 -17 b 82 446 239 -17 82 167 b 524 997 82 697 219 997 b 714 957 639 997 714 957 l 669 839 b 529 871 669 839 607 871 b 235 542 349 871 256 704 l 238 542 b 454 635 279 597 368 635 b 764 311 640 635 764 493 b 449 -17 764 118 632 -17 m 447 110 b 628 311 560 110 628 197 b 426 518 628 431 551 518 b 226 381 315 518 226 451 b 447 110 226 253 322 110 "},"7":{"ha":735,"x_min":0,"x_max":0,"o":"m 501 772 b 558 863 529 828 558 863 l 558 865 b 486 861 558 865 536 861 l 49 861 l 49 981 l 704 981 l 704 886 l 261 0 l 119 0 "},"8":{"ha":843,"x_min":0,"x_max":0,"o":"m 79 283 b 236 544 79 433 210 526 b 126 740 172 590 126 650 b 432 997 126 871 225 997 b 740 735 614 997 740 896 b 624 479 740 604 636 493 b 757 271 699 433 757 372 b 421 -17 757 118 625 -17 b 79 283 225 -17 79 106 m 615 275 b 338 486 615 381 469 422 b 219 292 306 464 219 397 b 421 107 219 179 317 107 b 615 275 524 107 615 174 m 263 738 b 519 533 263 629 393 588 b 606 726 535 549 606 624 b 431 874 606 817 533 874 b 263 738 322 874 263 813 "},"9":{"ha":832,"x_min":0,"x_max":0,"o":"m 308 -17 b 118 24 192 -17 118 24 l 163 143 b 303 110 163 143 225 110 b 597 439 483 110 576 276 l 594 439 b 378 347 554 383 464 347 b 68 669 192 347 68 488 b 383 997 68 863 200 997 b 750 535 592 997 750 815 b 308 -17 750 283 613 -17 m 406 463 b 606 600 517 463 606 531 b 385 871 606 728 510 871 b 204 669 271 871 204 783 b 406 463 204 550 279 463 "}," ":{"ha":357,"x_min":0,"x_max":0,"o":""},"!":{"ha":442,"x_min":0,"x_max":0,"o":"m 151 981 l 290 981 l 282 269 l 161 269 m 153 135 l 290 135 l 290 0 l 153 0 "},"\"":{"ha":475,"x_min":0,"x_max":0,"o":"m 282 997 l 388 997 l 388 736 l 282 736 m 88 997 l 193 997 l 193 736 l 88 736 "},"#":{"ha":997,"x_min":0,"x_max":0,"o":"m 242 265 l 61 265 l 78 368 l 260 368 l 300 601 l 121 601 l 138 703 l 318 703 l 367 981 l 479 981 l 431 703 l 646 703 l 694 981 l 807 981 l 758 703 l 940 703 l 922 601 l 742 601 l 700 368 l 881 368 l 863 265 l 683 265 l 636 0 l 524 0 l 569 265 l 354 265 l 308 0 l 196 0 m 588 368 l 629 601 l 414 601 l 372 368 "},"$":{"ha":786,"x_min":0,"x_max":0,"o":"m 153 217 b 403 111 153 217 257 111 b 572 256 494 111 572 163 b 92 724 572 458 92 426 b 350 993 92 858 196 971 l 350 1124 l 449 1124 l 449 994 b 686 899 604 983 686 899 l 624 785 b 408 869 624 785 533 869 b 231 726 303 869 231 804 b 711 260 231 532 711 572 b 449 -14 711 121 613 6 l 449 -142 l 350 -142 l 350 -14 b 75 113 172 4 75 113 "},"%":{"ha":1057,"x_min":0,"x_max":0,"o":"m 276 586 b 67 792 160 586 67 678 b 276 997 67 904 160 997 b 488 792 393 997 488 904 b 276 586 488 678 393 586 m 838 981 l 968 981 l 218 0 l 88 0 m 276 689 b 379 792 335 689 379 733 b 276 896 379 849 335 896 b 174 792 218 896 174 849 b 276 689 174 733 218 689 m 569 189 b 781 394 569 301 663 394 b 992 189 896 394 992 301 b 781 -17 992 75 896 -17 b 569 189 663 -17 569 75 m 678 189 b 781 86 678 131 722 86 b 883 189 838 86 883 131 b 781 293 883 246 838 293 b 678 189 722 293 678 246 "},"&":{"ha":950,"x_min":0,"x_max":0,"o":"m 75 275 b 247 526 75 383 139 490 l 247 529 b 118 744 247 529 118 574 b 419 997 118 907 246 997 b 539 982 474 997 539 982 l 504 872 b 431 881 504 872 464 881 b 257 731 333 881 257 826 b 438 576 257 669 286 576 l 619 576 l 619 710 l 754 710 l 754 576 l 885 576 l 885 457 l 754 457 l 754 326 b 415 -17 754 108 625 -17 b 75 275 211 -17 75 110 m 215 282 b 415 110 215 188 293 110 b 619 332 540 110 619 178 l 619 457 l 432 457 b 215 282 293 457 215 392 "},"'":{"ha":282,"x_min":0,"x_max":0,"o":"m 88 997 l 194 997 l 194 736 l 88 736 "},"(":{"ha":419,"x_min":0,"x_max":0,"o":"m 263 -132 b 101 472 163 35 101 249 b 263 1021 101 672 160 857 l 381 1021 b 224 471 279 851 224 667 b 381 -132 224 264 276 57 l 263 -132 "},")":{"ha":419,"x_min":0,"x_max":0,"o":"m 39 -132 b 196 471 143 57 196 264 b 39 1021 196 667 140 851 l 157 1021 b 318 472 260 857 318 672 b 157 -132 318 249 257 35 "},"*":{"ha":649,"x_min":0,"x_max":0,"o":"m 115 529 l 239 682 l 239 685 l 50 736 l 86 853 l 271 783 l 261 981 l 388 981 l 376 783 l 563 853 l 600 736 l 410 685 l 410 682 l 532 529 l 433 457 l 326 621 l 324 621 l 215 457 "},"+":{"ha":949,"x_min":0,"x_max":0,"o":"m 107 450 l 418 450 l 418 792 l 532 792 l 532 450 l 842 450 l 842 342 l 532 342 l 532 0 l 418 0 l 418 342 l 107 342 "},",":{"ha":354,"x_min":0,"x_max":0,"o":"m 124 146 l 261 146 l 144 -140 l 38 -140 "},"-":{"ha":656,"x_min":0,"x_max":0,"o":"m 125 456 l 531 456 l 531 336 l 125 336 "},".":{"ha":353,"x_min":0,"x_max":0,"o":"m 106 143 l 247 143 l 247 0 l 106 0 "},"/":{"ha":561,"x_min":0,"x_max":0,"o":"m 403 1033 l 522 1033 l 169 -58 l 50 -58 "},":":{"ha":406,"x_min":0,"x_max":0,"o":"m 132 703 l 274 703 l 274 560 l 132 560 m 132 143 l 274 143 l 274 0 l 132 0 "},";":{"ha":407,"x_min":0,"x_max":0,"o":"m 139 146 l 278 146 l 174 -140 l 65 -140 m 140 703 l 282 703 l 282 560 l 140 560 "},"<":{"ha":775,"x_min":0,"x_max":0,"o":"m 46 442 l 693 731 l 693 607 l 196 397 l 196 394 l 693 185 l 693 61 l 46 350 "},"=":{"ha":929,"x_min":0,"x_max":0,"o":"m 133 581 l 796 581 l 796 472 l 133 472 m 133 318 l 796 318 l 796 210 l 133 210 "},">":{"ha":775,"x_min":0,"x_max":0,"o":"m 82 185 l 578 394 l 578 397 l 82 607 l 82 731 l 729 442 l 729 350 l 82 61 "},"?":{"ha":679,"x_min":0,"x_max":0,"o":"m 200 335 b 436 736 200 546 436 576 b 278 874 436 814 369 874 b 119 815 190 874 119 815 l 44 911 b 288 1000 44 911 136 1000 b 578 746 444 1000 578 900 b 332 326 578 517 332 493 l 332 269 l 200 269 m 197 135 l 335 135 l 335 0 l 197 0 "},"@":{"ha":1140,"x_min":0,"x_max":0,"o":"m 82 335 b 589 849 82 621 306 849 b 950 567 857 849 950 714 l 950 174 l 1050 174 l 1050 72 l 671 72 b 383 335 497 72 383 194 b 671 594 383 472 496 594 l 821 594 b 596 738 818 674 739 738 b 217 335 381 738 217 551 b 611 -64 217 115 375 -64 l 611 -174 b 82 335 300 -174 82 51 m 519 336 b 681 174 519 246 586 174 l 821 174 l 821 501 l 683 501 b 519 336 586 501 519 426 "},"A":{"ha":872,"x_min":0,"x_max":0,"o":"m 619 282 l 250 282 l 153 0 l 11 0 l 364 981 l 508 981 l 861 0 l 718 0 m 435 846 b 396 707 435 846 413 757 l 286 396 l 583 396 l 475 707 b 438 846 458 757 438 846 "},"B":{"ha":881,"x_min":0,"x_max":0,"o":"m 133 981 l 476 981 b 761 731 642 981 761 889 b 639 519 761 635 714 558 l 639 517 b 800 279 742 486 800 389 b 485 0 800 94 657 0 l 133 0 m 476 568 b 621 717 565 568 621 631 b 474 861 621 803 568 861 l 271 861 l 271 568 m 492 119 b 660 286 597 119 660 186 b 490 454 660 386 593 454 l 271 454 l 271 119 "},"C":{"ha":1003,"x_min":0,"x_max":0,"o":"m 67 496 b 565 997 67 781 281 997 b 922 868 801 997 922 868 l 854 765 b 571 872 854 765 740 872 b 208 497 351 872 208 706 b 572 110 208 288 354 110 b 875 238 757 110 875 238 l 949 139 b 568 -17 949 139 814 -17 b 67 496 274 -17 67 208 "},"D":{"ha":1028,"x_min":0,"x_max":0,"o":"m 133 981 l 458 981 b 956 492 758 981 956 801 b 458 0 956 181 758 0 l 133 0 m 449 119 b 814 492 669 119 814 250 b 449 861 814 732 668 861 l 271 861 l 271 119 "},"E":{"ha":796,"x_min":0,"x_max":0,"o":"m 133 981 l 703 981 l 703 861 l 271 861 l 271 554 l 622 554 l 622 435 l 271 435 l 271 119 l 726 119 l 726 0 l 133 0 "},"F":{"ha":724,"x_min":0,"x_max":0,"o":"m 133 981 l 674 981 l 674 861 l 271 861 l 271 539 l 614 539 l 614 419 l 271 419 l 271 0 l 133 0 "},"G":{"ha":1056,"x_min":0,"x_max":0,"o":"m 68 492 b 568 997 68 775 282 997 b 925 879 803 997 925 879 l 856 776 b 579 872 856 776 746 872 b 210 494 349 872 210 704 b 571 110 210 267 365 110 b 849 232 740 110 849 232 l 849 374 l 689 374 l 689 493 l 974 493 l 974 0 l 853 0 l 853 61 b 854 103 853 82 854 103 l 851 103 b 550 -17 851 103 744 -17 b 68 492 286 -17 68 192 "},"H":{"ha":1050,"x_min":0,"x_max":0,"o":"m 133 981 l 271 981 l 271 550 l 779 550 l 779 981 l 917 981 l 917 0 l 779 0 l 779 431 l 271 431 l 271 0 l 133 0 "},"I":{"ha":404,"x_min":0,"x_max":0,"o":"m 133 981 l 271 981 l 271 0 l 133 0 "},"J":{"ha":746,"x_min":0,"x_max":0,"o":"m 42 331 l 178 331 l 178 289 b 333 110 178 156 256 110 b 486 283 410 110 486 154 l 486 861 l 239 861 l 239 981 l 624 981 l 624 282 b 332 -17 624 69 475 -17 b 42 282 189 -17 42 71 "},"K":{"ha":865,"x_min":0,"x_max":0,"o":"m 133 981 l 271 981 l 271 568 l 417 568 l 664 981 l 815 981 l 531 515 l 531 513 l 833 0 l 678 0 l 417 450 l 271 450 l 271 0 l 133 0 "},"L":{"ha":735,"x_min":0,"x_max":0,"o":"m 133 981 l 271 981 l 271 119 l 710 119 l 710 0 l 133 0 "},"M":{"ha":1203,"x_min":0,"x_max":0,"o":"m 182 981 l 326 981 l 551 450 b 600 318 574 396 600 318 l 603 318 b 651 450 603 318 629 396 l 876 981 l 1021 981 l 1100 0 l 964 0 l 915 618 b 914 763 911 678 914 763 l 911 763 b 858 618 911 763 882 672 l 663 176 l 540 176 l 346 618 b 293 765 324 671 293 765 l 290 765 b 288 618 290 765 292 678 l 240 0 l 103 0 "},"N":{"ha":1051,"x_min":0,"x_max":0,"o":"m 133 981 l 269 981 l 706 343 b 788 201 742 290 788 201 l 790 201 b 781 343 790 201 781 289 l 781 981 l 918 981 l 918 0 l 783 0 l 346 636 b 264 779 310 690 264 779 l 261 779 b 271 636 261 779 271 692 l 271 0 l 133 0 "},"O":{"ha":1140,"x_min":0,"x_max":0,"o":"m 67 497 b 571 997 67 779 288 997 b 1074 497 854 997 1074 779 b 571 -17 1074 208 854 -17 b 67 497 288 -17 67 208 m 208 497 b 571 110 208 276 371 110 b 932 497 771 110 932 276 b 571 872 932 711 771 872 b 208 497 371 872 208 711 "},"P":{"ha":843,"x_min":0,"x_max":0,"o":"m 133 981 l 492 981 b 800 674 671 981 800 860 b 492 363 800 488 671 363 l 271 363 l 271 0 l 133 0 m 469 482 b 660 674 588 482 660 556 b 471 861 660 792 588 861 l 271 861 l 271 482 "},"Q":{"ha":1157,"x_min":0,"x_max":0,"o":"m 68 496 b 571 997 68 779 288 997 b 1075 496 856 997 1075 779 b 960 172 1075 372 1031 258 l 1076 61 l 996 -25 l 882 89 b 571 -17 797 21 690 -17 b 68 496 288 -17 68 210 m 210 496 b 571 110 210 276 368 110 b 783 182 644 110 726 136 l 668 294 l 749 381 l 861 267 b 933 496 906 328 933 410 b 571 872 933 713 775 872 b 210 496 368 872 210 713 "},"R":{"ha":890,"x_min":0,"x_max":0,"o":"m 133 981 l 433 981 b 617 958 536 981 579 972 b 782 693 717 921 782 822 b 606 428 782 568 713 463 l 606 425 b 635 381 606 425 617 413 l 843 0 l 688 0 l 481 390 l 271 390 l 271 0 l 133 0 m 468 510 b 642 688 575 510 642 578 b 564 839 642 760 614 811 b 429 861 538 853 506 861 l 271 861 l 271 510 "},"S":{"ha":758,"x_min":0,"x_max":0,"o":"m 136 217 b 386 111 136 217 240 111 b 556 256 478 111 556 163 b 81 724 556 468 81 422 b 397 997 81 876 213 997 b 675 899 579 997 675 899 l 613 785 b 397 869 613 785 522 869 b 219 726 293 869 219 804 b 694 260 219 524 694 578 b 383 -17 694 108 578 -17 b 58 113 175 -17 58 113 "},"T":{"ha":824,"x_min":0,"x_max":0,"o":"m 343 861 l 7 861 l 7 981 l 817 981 l 817 861 l 481 861 l 481 0 l 343 0 "},"U":{"ha":1011,"x_min":0,"x_max":0,"o":"m 119 981 l 257 981 l 257 347 b 504 110 257 197 354 110 b 754 350 656 110 754 197 l 754 981 l 892 981 l 892 347 b 506 -17 892 129 735 -17 b 119 347 276 -17 119 129 "},"V":{"ha":878,"x_min":0,"x_max":0,"o":"m 8 981 l 157 981 l 400 288 b 438 153 418 235 438 153 l 440 153 b 478 288 440 153 460 235 l 724 981 l 869 981 l 508 0 l 371 0 "},"W":{"ha":1317,"x_min":0,"x_max":0,"o":"m 717 981 l 908 261 b 929 157 922 207 929 157 l 932 157 b 950 261 932 157 936 208 l 1131 981 l 1272 981 l 1015 0 l 856 0 l 686 636 b 657 775 669 699 657 775 l 654 775 b 625 636 654 775 642 699 l 456 0 l 296 0 l 46 981 l 188 981 l 361 261 b 379 157 374 208 379 157 l 382 157 b 403 261 382 157 389 207 l 594 981 "},"X":{"ha":850,"x_min":0,"x_max":0,"o":"m 340 506 l 50 981 l 208 981 l 363 715 b 425 599 393 663 425 599 l 428 599 b 488 715 428 599 456 661 l 642 981 l 800 981 l 510 506 l 819 0 l 664 0 l 486 301 b 424 414 454 357 424 414 l 421 414 b 363 301 421 414 394 356 l 185 0 l 31 0 "},"Y":{"ha":817,"x_min":0,"x_max":0,"o":"m 340 415 l 11 981 l 167 981 l 349 658 b 408 535 379 604 408 535 l 411 535 b 471 658 411 535 440 603 l 650 981 l 806 981 l 478 415 l 478 0 l 340 0 "},"Z":{"ha":843,"x_min":0,"x_max":0,"o":"m 57 92 l 529 772 b 600 863 567 828 600 863 l 600 865 b 526 861 600 865 574 861 l 82 861 l 82 981 l 771 981 l 771 890 l 299 208 b 228 119 261 154 228 119 l 228 117 b 301 119 228 117 254 119 l 776 119 l 776 0 l 57 0 "},"[":{"ha":418,"x_min":0,"x_max":0,"o":"m 140 1021 l 369 1021 l 369 919 l 258 919 l 258 -29 l 369 -29 l 369 -132 l 140 -132 "},"\\":{"ha":561,"x_min":0,"x_max":0,"o":"m 39 1033 l 158 1033 l 511 -58 l 392 -58 "},"]":{"ha":419,"x_min":0,"x_max":0,"o":"m 161 -29 l 161 919 l 49 919 l 49 1021 l 279 1021 l 279 -132 l 49 -132 l 49 -29 "},"^":{"ha":851,"x_min":0,"x_max":0,"o":"m 374 981 l 461 981 l 738 343 l 617 343 l 417 832 l 218 343 l 96 343 "},"_":{"ha":825,"x_min":0,"x_max":0,"o":"m 786 0 l 786 -108 l 39 -108 l 39 0 "},"`":{"ha":693,"x_min":0,"x_max":0,"o":"m 224 1225 l 368 1225 l 469 1049 l 356 1049 "},"a":{"ha":733,"x_min":0,"x_max":0,"o":"m 49 197 b 472 439 49 429 354 439 l 503 439 l 503 451 b 349 606 503 567 438 606 b 153 538 240 606 153 538 l 97 636 b 360 719 97 636 199 719 b 638 444 538 719 638 622 l 638 0 l 513 0 l 513 67 b 515 122 513 99 515 122 l 513 122 b 288 -17 513 122 456 -17 b 49 197 167 -17 49 57 m 185 204 b 317 92 185 147 229 92 b 504 315 431 92 504 211 l 504 338 l 469 338 b 185 204 368 338 185 331 "},"b":{"ha":833,"x_min":0,"x_max":0,"o":"m 106 981 l 240 981 l 240 660 b 238 600 240 625 238 600 l 240 600 b 465 719 240 600 300 719 b 774 351 654 719 774 569 b 454 -17 774 128 639 -17 b 233 104 297 -17 233 104 l 231 104 b 233 51 231 104 233 82 l 233 0 l 106 0 m 236 349 b 435 99 236 224 301 99 b 638 350 546 99 638 190 b 439 601 638 503 556 601 b 236 349 333 601 236 528 "},"c":{"ha":760,"x_min":0,"x_max":0,"o":"m 56 351 b 432 719 56 560 211 719 b 696 617 608 719 696 617 l 632 522 b 438 603 632 522 557 603 b 193 353 296 603 193 497 b 442 100 193 210 296 100 b 658 194 572 100 658 194 l 713 96 b 432 -17 713 96 615 -17 b 56 351 211 -17 56 140 "},"d":{"ha":835,"x_min":0,"x_max":0,"o":"m 60 351 b 378 719 60 575 192 719 b 594 608 540 719 594 608 l 597 608 b 594 656 597 608 594 629 l 594 981 l 729 981 l 729 0 l 601 0 l 601 67 b 603 114 601 94 603 114 l 600 114 b 369 -17 600 114 543 -17 b 60 351 179 -17 60 133 m 197 351 b 396 100 197 199 279 100 b 599 353 500 100 599 174 b 400 603 599 478 533 603 b 197 351 289 603 197 511 "},"e":{"ha":771,"x_min":0,"x_max":0,"o":"m 57 351 b 408 719 57 575 208 719 b 713 390 607 719 713 572 b 708 332 713 372 708 332 l 196 332 b 438 100 203 178 313 100 b 646 182 558 100 646 182 l 701 83 b 429 -17 701 83 597 -17 b 57 351 208 -17 57 143 m 575 433 b 406 613 571 554 496 613 b 200 433 303 613 219 549 "},"f":{"ha":467,"x_min":0,"x_max":0,"o":"m 143 585 l 56 585 l 56 693 l 143 693 l 143 726 b 407 988 143 958 318 988 b 458 983 438 988 458 983 l 458 868 b 424 871 458 868 444 871 b 276 724 372 871 276 854 l 276 693 l 443 693 l 443 585 l 276 585 l 276 0 l 143 0 "},"g":{"ha":824,"x_min":0,"x_max":0,"o":"m 168 -128 b 361 -175 168 -128 256 -175 b 583 22 483 -175 583 -121 l 583 74 b 585 118 583 96 585 118 l 582 118 b 374 8 540 49 475 8 b 60 368 178 8 60 165 b 367 719 60 569 172 719 b 588 615 536 719 588 615 l 590 615 b 589 638 590 615 589 625 l 589 703 l 718 703 l 718 29 b 364 -292 718 -203 542 -292 b 124 -233 279 -292 192 -268 l 168 -128 m 400 125 b 586 367 497 125 586 183 b 388 603 586 550 497 603 b 196 371 265 603 196 514 b 400 125 196 225 274 125 "},"h":{"ha":838,"x_min":0,"x_max":0,"o":"m 106 981 l 240 981 l 240 621 b 238 563 240 588 238 563 l 240 563 b 500 719 271 631 360 719 b 742 450 665 719 742 629 l 742 0 l 607 0 l 607 419 b 474 596 607 518 586 596 b 251 422 368 596 281 524 b 240 329 243 394 240 363 l 240 0 l 106 0 "},"i":{"ha":346,"x_min":0,"x_max":0,"o":"m 104 981 l 240 981 l 240 843 l 104 843 m 106 703 l 240 703 l 240 0 l 106 0 "},"j":{"ha":344,"x_min":0,"x_max":0,"o":"m 104 981 l 240 981 l 240 843 l 104 843 m 239 703 l 239 -24 b -29 -286 239 -258 58 -286 b -76 -283 -58 -286 -76 -283 l -76 -168 b -46 -169 -76 -168 -64 -169 b 106 -15 6 -169 106 -153 l 106 703 "},"k":{"ha":731,"x_min":0,"x_max":0,"o":"m 106 981 l 240 981 l 240 444 l 339 444 l 531 703 l 683 703 l 450 393 l 450 390 l 710 0 l 553 0 l 342 331 l 240 331 l 240 0 l 106 0 "},"l":{"ha":368,"x_min":0,"x_max":0,"o":"m 97 981 l 232 981 l 232 215 b 307 115 232 131 265 115 b 331 117 319 115 331 117 l 331 -3 b 286 -6 331 -3 310 -6 b 97 192 210 -6 97 15 "},"m":{"ha":1269,"x_min":0,"x_max":0,"o":"m 106 703 l 236 703 l 236 610 b 233 558 236 582 233 558 l 236 558 b 478 719 269 640 368 719 b 689 560 596 719 665 665 l 692 560 b 942 719 731 644 828 719 b 1174 450 1100 719 1174 629 l 1174 0 l 1039 0 l 1039 421 b 914 597 1039 519 1019 597 b 717 418 815 597 742 514 b 707 321 710 389 707 357 l 707 0 l 572 0 l 572 421 b 450 597 572 513 558 597 b 249 413 347 597 275 513 b 240 321 242 385 240 353 l 240 0 l 106 0 "},"n":{"ha":838,"x_min":0,"x_max":0,"o":"m 106 703 l 236 703 l 236 610 b 233 558 236 582 233 558 l 236 558 b 500 719 264 619 347 719 b 742 450 665 719 742 629 l 742 0 l 607 0 l 607 419 b 474 596 607 518 586 596 b 251 424 367 596 281 525 b 240 329 243 396 240 364 l 240 0 l 106 0 "},"o":{"ha":867,"x_min":0,"x_max":0,"o":"m 54 353 b 433 719 54 565 224 719 b 813 353 643 719 813 565 b 433 -17 813 139 643 -17 b 54 353 224 -17 54 139 m 192 353 b 433 100 192 206 301 100 b 675 353 567 100 675 206 b 433 603 675 499 567 603 b 192 353 301 603 192 499 "},"p":{"ha":833,"x_min":0,"x_max":0,"o":"m 106 703 l 229 703 l 229 643 b 226 592 229 615 226 592 l 229 592 b 465 719 229 592 289 719 b 774 351 654 719 774 569 b 456 -17 774 128 639 -17 b 240 99 301 -17 240 99 l 238 99 b 240 38 238 99 240 74 l 240 -278 l 106 -278 m 236 349 b 435 99 236 224 306 99 b 638 350 546 99 638 190 b 439 601 638 503 556 601 b 236 349 333 601 236 528 "},"q":{"ha":835,"x_min":0,"x_max":0,"o":"m 60 351 b 378 719 60 575 192 719 b 600 601 540 719 600 601 l 603 601 b 601 650 603 601 601 622 l 601 703 l 729 703 l 729 -278 l 594 -278 l 594 43 b 597 104 594 79 597 104 l 594 104 b 369 -17 594 104 536 -17 b 60 351 179 -17 60 133 m 197 351 b 396 100 197 199 279 100 b 599 353 500 100 599 174 b 400 603 599 478 533 603 b 197 351 289 603 197 511 "},"r":{"ha":521,"x_min":0,"x_max":0,"o":"m 106 703 l 236 703 l 236 581 b 233 528 236 551 233 528 l 236 528 b 458 711 268 631 350 711 b 493 708 476 711 493 708 l 493 575 b 454 579 493 575 475 579 b 257 414 368 579 289 518 b 240 288 244 374 240 331 l 240 0 l 106 0 "},"s":{"ha":622,"x_min":0,"x_max":0,"o":"m 114 182 b 315 100 114 182 193 100 b 432 188 374 100 432 131 b 71 519 432 317 71 290 b 325 719 71 647 185 719 b 551 642 479 719 551 642 l 497 540 b 324 603 497 540 435 603 b 208 517 265 603 208 578 b 569 188 208 390 569 418 b 315 -17 569 71 469 -17 b 49 86 143 -17 49 86 "},"t":{"ha":497,"x_min":0,"x_max":0,"o":"m 135 585 l 43 585 l 43 693 l 139 693 l 139 896 l 269 896 l 269 693 l 439 693 l 439 585 l 269 585 l 269 272 b 419 114 269 132 368 114 b 451 117 439 114 451 117 l 451 -3 b 404 -6 451 -3 432 -6 b 135 257 314 -6 135 22 "},"u":{"ha":831,"x_min":0,"x_max":0,"o":"m 96 703 l 231 703 l 231 283 b 363 108 231 186 250 108 b 590 374 506 108 590 235 l 590 703 l 725 703 l 725 0 l 594 0 l 594 93 b 597 144 594 122 597 144 l 594 144 b 336 -17 565 75 474 -17 b 96 253 178 -17 96 67 "},"v":{"ha":697,"x_min":0,"x_max":0,"o":"m 10 703 l 153 703 l 324 228 b 347 132 338 189 346 132 l 350 132 b 375 228 351 132 361 189 l 546 703 l 688 703 l 428 0 l 272 0 "},"w":{"ha":1131,"x_min":0,"x_max":0,"o":"m 24 703 l 167 703 l 313 210 b 331 135 324 174 329 135 l 333 135 b 351 210 333 135 340 174 l 504 701 l 628 701 l 779 210 b 799 135 790 174 799 135 l 801 135 b 818 210 801 135 807 174 l 965 703 l 1107 703 l 881 0 l 732 0 l 586 451 b 567 528 575 488 567 528 l 564 528 b 544 451 564 528 556 488 l 400 0 l 250 0 "},"x":{"ha":706,"x_min":0,"x_max":0,"o":"m 351 274 b 331 235 351 274 340 251 l 183 0 l 31 0 l 269 361 l 43 703 l 197 703 l 328 489 b 351 447 339 471 351 447 l 354 447 b 378 489 354 447 367 471 l 508 703 l 663 703 l 436 361 l 675 0 l 522 0 l 375 235 b 354 274 365 251 354 274 "},"y":{"ha":708,"x_min":0,"x_max":0,"o":"m 54 -146 b 136 -175 54 -146 93 -175 b 263 -72 190 -175 236 -136 l 297 8 l 3 703 l 154 703 l 331 243 b 357 158 344 207 357 158 l 360 158 b 383 242 360 158 371 206 l 554 703 l 700 703 l 371 -126 b 143 -292 328 -235 242 -292 b 7 -249 64 -292 7 -249 "},"z":{"ha":718,"x_min":0,"x_max":0,"o":"m 54 78 l 408 522 b 467 588 439 560 467 588 l 467 590 b 399 588 467 590 444 588 l 69 588 l 69 703 l 649 703 l 649 625 l 294 179 b 235 115 265 143 235 115 l 235 113 b 304 115 235 113 258 115 l 661 115 l 661 0 l 54 0 "},"{":{"ha":486,"x_min":0,"x_max":0,"o":"m 186 240 b 68 392 186 382 68 392 l 68 511 b 186 665 68 511 186 521 l 186 782 b 411 1024 186 1001 344 1024 b 443 1022 431 1024 443 1022 l 443 919 b 424 919 443 919 435 919 b 304 774 389 919 304 907 l 304 631 b 192 454 304 493 192 454 l 192 451 b 304 275 192 451 304 418 l 304 115 b 424 -31 304 -18 389 -31 b 443 -31 435 -31 443 -31 l 443 -133 b 411 -136 443 -133 431 -136 b 186 107 344 -136 186 -114 "},"|":{"ha":393,"x_min":0,"x_max":0,"o":"m 138 1100 l 256 1100 l 256 -221 l 138 -221 "},"}":{"ha":486,"x_min":0,"x_max":0,"o":"m 43 -31 b 63 -31 43 -31 50 -31 b 182 115 97 -31 182 -18 l 182 275 b 294 451 182 418 294 451 l 294 454 b 182 631 294 454 182 493 l 182 774 b 63 919 182 907 97 919 b 43 919 50 919 43 919 l 43 1022 b 75 1024 43 1022 56 1024 b 300 782 142 1024 300 1001 l 300 665 b 418 511 300 521 418 511 l 418 392 b 300 240 418 392 300 382 l 300 107 b 75 -136 300 -114 142 -136 b 43 -133 56 -136 43 -133 l 43 -31 "},"~":{"ha":844,"x_min":0,"x_max":0,"o":"m 93 283 b 288 518 93 444 167 518 b 553 382 433 518 449 382 b 646 513 626 382 646 454 l 756 513 b 563 278 756 350 682 278 b 296 413 417 278 401 413 b 203 283 224 413 203 340 l 93 283 "},"¡":{"ha":401,"x_min":0,"x_max":0,"o":"m 131 703 l 268 703 l 268 568 l 131 568 m 140 433 l 261 433 l 269 -278 l 131 -278 "},"¢":{"ha":800,"x_min":0,"x_max":0,"o":"m 367 101 b 74 490 183 126 74 290 b 367 881 74 692 183 856 l 367 997 l 465 997 l 465 881 b 726 665 588 863 679 781 l 604 618 b 419 756 569 696 511 756 b 211 490 286 756 211 640 b 419 226 211 336 282 226 b 604 364 510 226 569 285 l 726 315 b 465 101 682 213 596 115 l 465 -18 l 367 -18 "},"£":{"ha":821,"x_min":0,"x_max":0,"o":"m 101 540 l 163 540 l 163 729 b 464 997 163 883 289 997 b 696 908 604 997 696 908 l 617 813 b 465 872 617 813 550 872 b 301 724 363 872 301 806 l 301 540 l 557 540 l 557 443 l 301 443 l 301 119 l 753 119 l 753 0 l 78 0 l 78 119 l 163 119 l 163 443 l 101 443 "},"¥":{"ha":843,"x_min":0,"x_max":0,"o":"m 125 569 l 268 569 l 39 981 l 196 981 l 360 675 b 419 533 390 610 419 533 l 422 533 b 482 675 422 533 451 610 l 647 981 l 804 981 l 574 569 l 715 569 l 715 482 l 528 482 l 490 415 l 490 364 l 715 364 l 715 276 l 490 276 l 490 0 l 351 0 l 351 276 l 125 276 l 125 364 l 351 364 l 351 415 l 314 482 l 125 482 "},"§":{"ha":614,"x_min":0,"x_max":0,"o":"m 96 696 b 88 760 90 717 88 739 b 350 997 88 894 186 997 b 546 926 469 997 546 926 l 482 838 b 350 885 482 838 426 885 b 201 744 267 885 201 839 b 210 689 201 728 204 710 l 304 154 l 193 154 m 128 78 b 263 26 128 78 185 26 b 410 172 344 26 410 75 b 401 235 410 190 407 211 l 310 757 l 419 757 l 517 215 b 524 153 521 193 524 172 b 263 -86 524 15 425 -86 b 67 -15 142 -86 67 -15 "},"¨":{"ha":693,"x_min":0,"x_max":0,"o":"m 407 1225 l 518 1225 l 518 1085 l 407 1085 m 175 1225 l 286 1225 l 286 1085 l 175 1085 "},"©":{"ha":1140,"x_min":0,"x_max":0,"o":"m 75 490 b 568 997 75 772 294 997 b 1065 490 844 997 1065 772 b 568 -17 1065 208 844 -17 b 75 490 294 -17 75 208 m 176 490 b 568 78 176 258 347 78 b 964 490 792 78 964 258 b 568 903 964 722 792 903 b 176 490 347 903 176 722 m 304 489 b 578 767 304 635 410 767 b 804 629 738 767 804 629 l 719 583 b 582 671 719 583 672 671 b 410 489 472 671 410 585 b 582 307 410 390 469 307 b 719 394 674 307 719 394 l 804 349 b 578 211 804 349 738 211 b 304 489 410 211 304 342 "},"ª":{"ha":586,"x_min":0,"x_max":0,"o":"m 253 531 b 103 665 179 531 103 578 b 364 818 103 814 289 818 l 378 818 l 378 826 b 289 914 378 892 340 914 b 174 875 229 914 174 875 l 133 943 b 301 994 133 943 196 994 b 478 819 417 994 478 932 l 478 540 l 383 540 l 383 604 l 381 604 b 253 531 381 604 343 531 m 274 613 b 378 736 338 613 378 678 l 378 747 l 361 747 b 203 672 308 747 203 743 b 274 613 203 640 228 613 m 101 447 l 483 447 l 483 368 l 101 368 "},"«":{"ha":772,"x_min":0,"x_max":0,"o":"m 568 678 l 703 678 l 475 392 l 703 107 l 568 107 l 340 392 m 61 392 l 289 678 l 424 678 l 196 392 l 424 107 l 289 107 "},"¬":{"ha":853,"x_min":0,"x_max":0,"o":"m 83 581 l 746 581 l 746 210 l 633 210 l 633 472 l 83 472 "},"®":{"ha":1140,"x_min":0,"x_max":0,"o":"m 75 490 b 568 997 75 772 294 997 b 1065 490 844 997 1065 772 b 568 -17 1065 208 844 -17 b 75 490 294 -17 75 208 m 176 490 b 568 78 176 258 347 78 b 964 490 792 78 964 258 b 568 903 964 722 792 903 b 176 490 347 903 176 722 m 399 754 l 600 754 b 765 594 699 754 765 692 b 669 456 765 514 713 467 l 669 453 b 688 424 669 453 675 447 l 788 231 l 679 231 l 582 433 l 497 433 l 497 231 l 399 231 m 581 506 b 665 594 632 506 665 539 b 581 679 665 649 632 679 l 497 679 l 497 506 "},"¯":{"ha":693,"x_min":0,"x_max":0,"o":"m 169 1186 l 524 1186 l 524 1089 l 169 1089 "},"°":{"ha":540,"x_min":0,"x_max":0,"o":"m 269 586 b 60 792 153 586 60 678 b 269 997 60 904 153 997 b 481 792 386 997 481 904 b 269 586 481 678 386 586 m 269 689 b 372 792 328 689 372 735 b 269 896 372 849 328 896 b 167 792 211 896 167 849 b 269 689 167 735 211 689 "},"±":{"ha":946,"x_min":0,"x_max":0,"o":"m 106 450 l 417 450 l 417 792 l 531 792 l 531 450 l 840 450 l 840 342 l 531 342 l 531 0 l 417 0 l 417 342 l 106 342 m 818 -132 l 818 -240 l 128 -240 l 128 -132 "},"²":{"ha":540,"x_min":0,"x_max":0,"o":"m 69 588 b 65 638 68 604 65 622 b 360 1022 65 872 360 883 b 260 1113 360 1074 318 1113 b 143 1046 192 1113 143 1046 l 75 1108 b 265 1208 75 1108 138 1208 b 465 1026 379 1208 465 1136 b 179 679 465 824 188 810 l 475 679 l 475 588 l 69 588 "},"³":{"ha":540,"x_min":0,"x_max":0,"o":"m 260 574 b 56 665 119 574 56 665 l 114 739 b 256 669 114 739 164 669 b 371 775 314 669 371 714 b 247 874 371 839 310 874 l 200 874 l 178 926 l 301 1069 b 335 1103 314 1085 335 1103 l 335 1106 b 285 1101 335 1106 308 1101 l 89 1101 l 89 1194 l 465 1194 l 465 1128 l 314 953 b 476 775 397 940 476 886 b 260 574 476 668 388 574 "},"´":{"ha":693,"x_min":0,"x_max":0,"o":"m 325 1225 l 469 1225 l 336 1049 l 224 1049 "},"µ":{"ha":860,"x_min":0,"x_max":0,"o":"m 115 703 l 250 703 l 250 283 b 381 108 250 186 269 108 b 610 374 525 108 610 235 l 610 703 l 744 703 l 744 0 l 614 0 l 614 96 b 617 144 614 121 617 144 l 613 144 b 354 -17 613 144 547 -17 b 228 26 261 -17 228 26 l 225 26 b 235 -82 225 26 235 -42 l 235 -278 l 115 -278 "},"¶":{"ha":819,"x_min":0,"x_max":0,"o":"m 389 335 b 60 658 210 335 60 476 b 388 981 60 840 208 981 l 765 981 l 765 861 l 493 861 l 493 -69 l 389 -69 m 579 782 l 682 782 l 682 -69 l 579 -69 "},"·":{"ha":382,"x_min":0,"x_max":0,"o":"m 122 475 l 260 475 l 260 332 l 122 332 "},"¸":{"ha":693,"x_min":0,"x_max":0,"o":"m 372 18 l 372 7 l 356 -69 b 456 -171 413 -76 456 -111 b 314 -287 456 -257 385 -287 b 238 -278 269 -287 238 -278 l 238 -197 b 296 -207 238 -197 265 -207 b 363 -164 331 -207 363 -196 b 289 -121 363 -135 332 -121 b 264 -122 276 -121 264 -122 l 304 32 "},"¹":{"ha":540,"x_min":0,"x_max":0,"o":"m 99 679 l 228 679 l 228 1025 b 231 1061 228 1044 231 1061 l 228 1061 b 203 1031 228 1061 222 1049 l 154 983 l 90 1051 l 238 1194 l 332 1194 l 332 679 l 458 679 l 458 588 l 99 588 "},"º":{"ha":649,"x_min":0,"x_max":0,"o":"m 324 533 b 86 767 192 533 86 631 b 322 996 86 899 192 996 b 561 767 454 996 561 899 b 324 533 561 631 454 533 m 324 622 b 460 767 399 622 460 682 b 324 907 460 849 399 907 b 186 767 247 907 186 849 b 324 622 186 682 247 622 m 108 447 l 542 447 l 542 368 l 108 368 "},"»":{"ha":774,"x_min":0,"x_max":0,"o":"m 578 392 l 350 678 l 485 678 l 713 392 l 485 107 l 350 107 m 297 392 l 69 678 l 204 678 l 432 392 l 204 107 l 69 107 "},"¼":{"ha":1343,"x_min":0,"x_max":0,"o":"m 363 0 l 829 981 l 933 981 l 467 0 m 82 465 l 211 465 l 211 811 b 214 847 211 831 214 847 l 211 847 b 186 817 211 847 206 835 l 138 769 l 74 838 l 221 981 l 315 981 l 315 465 l 442 465 l 442 374 l 82 374 m 1081 149 l 792 149 l 792 218 l 1071 607 l 1183 607 l 1183 240 l 1268 240 l 1268 149 l 1183 149 l 1183 0 l 1081 0 m 1081 240 l 1081 411 b 1085 492 1081 447 1085 492 l 1082 492 b 1042 425 1082 492 1063 454 l 906 243 l 906 240 "},"½":{"ha":1335,"x_min":0,"x_max":0,"o":"m 365 0 l 832 981 l 936 981 l 469 0 m 82 465 l 211 465 l 211 811 b 214 847 211 831 214 847 l 211 847 b 186 817 211 847 206 835 l 138 769 l 74 838 l 221 981 l 315 981 l 315 465 l 442 465 l 442 374 l 82 374 m 838 0 b 833 50 836 17 833 35 b 1128 435 833 285 1128 296 b 1028 525 1128 486 1086 525 b 911 458 960 525 911 458 l 843 521 b 1033 621 843 521 906 621 b 1233 439 1147 621 1233 549 b 947 92 1233 236 956 222 l 1243 92 l 1243 0 l 838 0 "},"¾":{"ha":1360,"x_min":0,"x_max":0,"o":"m 379 0 l 846 981 l 950 981 l 483 0 m 1097 149 l 808 149 l 808 218 l 1088 607 l 1200 607 l 1200 240 l 1285 240 l 1285 149 l 1200 149 l 1200 0 l 1097 0 m 1097 240 l 1097 411 b 1101 492 1097 447 1101 492 l 1099 492 b 1058 425 1099 492 1079 454 l 922 243 l 922 240 m 260 360 b 56 451 119 360 56 451 l 114 525 b 256 456 114 525 164 456 b 371 561 314 456 371 500 b 247 660 371 625 310 660 l 200 660 l 178 713 l 301 856 b 335 889 314 871 335 889 l 335 892 b 285 888 335 892 308 888 l 89 888 l 89 981 l 465 981 l 465 914 l 314 739 b 476 561 397 726 476 672 b 260 360 476 454 388 360 "},"¿":{"ha":625,"x_min":0,"x_max":0,"o":"m 297 703 l 435 703 l 435 568 l 297 568 m 54 -39 b 300 382 54 190 300 214 l 300 433 l 431 433 l 431 374 b 196 -28 431 163 196 131 b 354 -167 196 -106 263 -167 b 513 -107 442 -167 513 -107 l 586 -203 b 344 -292 586 -203 496 -292 b 54 -39 188 -292 54 -193 "},"À":{"ha":872,"x_min":0,"x_max":0,"o":"m 619 282 l 250 282 l 153 0 l 11 0 l 364 981 l 508 981 l 861 0 l 718 0 m 435 846 b 396 707 435 846 413 757 l 286 396 l 583 396 l 475 707 b 438 846 458 757 438 846 m 250 1225 l 394 1225 l 496 1049 l 382 1049 "},"Á":{"ha":872,"x_min":0,"x_max":0,"o":"m 619 282 l 250 282 l 153 0 l 11 0 l 364 981 l 508 981 l 861 0 l 718 0 m 435 846 b 396 707 435 846 413 757 l 286 396 l 583 396 l 475 707 b 438 846 458 757 438 846 m 476 1225 l 621 1225 l 488 1049 l 375 1049 "},"Â":{"ha":872,"x_min":0,"x_max":0,"o":"m 619 282 l 250 282 l 153 0 l 11 0 l 364 981 l 508 981 l 861 0 l 718 0 m 435 846 b 396 707 435 846 413 757 l 286 396 l 583 396 l 475 707 b 438 846 458 757 438 846 m 365 1225 l 506 1225 l 628 1049 l 510 1049 l 436 1160 l 433 1160 l 361 1049 l 243 1049 "},"Ã":{"ha":872,"x_min":0,"x_max":0,"o":"m 619 282 l 250 282 l 153 0 l 11 0 l 364 981 l 508 981 l 861 0 l 718 0 m 435 846 b 396 707 435 846 413 757 l 286 396 l 583 396 l 475 707 b 438 846 458 757 438 846 m 203 1050 b 344 1226 203 1167 250 1226 b 519 1132 438 1226 460 1132 b 574 1222 561 1132 574 1182 l 671 1222 b 529 1046 671 1107 624 1046 b 354 1140 436 1046 414 1140 b 300 1050 313 1140 300 1092 l 203 1050 "},"Ä":{"ha":872,"x_min":0,"x_max":0,"o":"m 619 282 l 250 282 l 153 0 l 11 0 l 364 981 l 508 981 l 861 0 l 718 0 m 435 846 b 396 707 435 846 413 757 l 286 396 l 583 396 l 475 707 b 438 846 458 757 438 846 m 497 1225 l 608 1225 l 608 1085 l 497 1085 m 265 1225 l 376 1225 l 376 1085 l 265 1085 "},"Å":{"ha":872,"x_min":0,"x_max":0,"o":"m 619 282 l 250 282 l 153 0 l 11 0 l 364 981 l 508 981 l 861 0 l 718 0 m 435 846 b 396 707 435 846 413 757 l 286 396 l 583 396 l 475 707 b 438 846 458 757 438 846 m 436 1032 b 318 1135 374 1032 318 1071 b 436 1239 318 1200 374 1239 b 554 1135 497 1239 554 1200 b 436 1032 554 1071 497 1032 m 436 1089 b 482 1135 463 1089 482 1108 b 436 1183 482 1164 463 1183 b 390 1135 408 1183 390 1164 b 436 1089 390 1108 408 1089 "},"Æ":{"ha":1219,"x_min":0,"x_max":0,"o":"m 411 981 l 1128 981 l 1128 861 l 694 861 l 694 554 l 1047 554 l 1047 435 l 694 435 l 694 119 l 1151 119 l 1151 0 l 558 0 l 558 436 l 324 436 l 149 0 l 6 0 m 369 550 l 558 550 l 558 861 l 494 861 "},"Ç":{"ha":1006,"x_min":0,"x_max":0,"o":"m 69 496 b 568 997 69 781 283 997 b 925 868 804 997 925 868 l 857 765 b 574 872 857 765 743 872 b 211 497 354 872 211 706 b 575 110 211 288 357 110 b 878 238 760 110 878 238 l 951 139 b 592 -17 951 139 824 -7 l 581 -69 b 681 -171 638 -76 681 -111 b 539 -287 681 -257 610 -287 b 463 -278 494 -287 463 -278 l 463 -197 b 521 -207 463 -197 490 -207 b 588 -164 556 -207 588 -196 b 514 -121 588 -135 557 -121 b 489 -122 501 -121 489 -122 l 517 -14 b 69 496 251 11 69 226 "},"È":{"ha":796,"x_min":0,"x_max":0,"o":"m 133 981 l 703 981 l 703 861 l 271 861 l 271 554 l 622 554 l 622 435 l 271 435 l 271 119 l 726 119 l 726 0 l 133 0 m 247 1225 l 392 1225 l 493 1049 l 379 1049 "},"É":{"ha":796,"x_min":0,"x_max":0,"o":"m 133 981 l 703 981 l 703 861 l 271 861 l 271 554 l 622 554 l 622 435 l 271 435 l 271 119 l 726 119 l 726 0 l 133 0 m 475 1225 l 619 1225 l 486 1049 l 374 1049 "},"Ê":{"ha":796,"x_min":0,"x_max":0,"o":"m 133 981 l 703 981 l 703 861 l 271 861 l 271 554 l 622 554 l 622 435 l 271 435 l 271 119 l 726 119 l 726 0 l 133 0 m 364 1225 l 504 1225 l 626 1049 l 508 1049 l 435 1160 l 432 1160 l 360 1049 l 242 1049 "},"Ë":{"ha":796,"x_min":0,"x_max":0,"o":"m 133 981 l 703 981 l 703 861 l 271 861 l 271 554 l 622 554 l 622 435 l 271 435 l 271 119 l 726 119 l 726 0 l 133 0 m 494 1225 l 606 1225 l 606 1085 l 494 1085 m 263 1225 l 374 1225 l 374 1085 l 263 1085 "},"Ì":{"ha":404,"x_min":0,"x_max":0,"o":"m 133 981 l 271 981 l 271 0 l 133 0 m 17 1225 l 161 1225 l 263 1049 l 149 1049 "},"Í":{"ha":404,"x_min":0,"x_max":0,"o":"m 133 981 l 271 981 l 271 0 l 133 0 m 244 1225 l 389 1225 l 256 1049 l 143 1049 "},"Î":{"ha":404,"x_min":0,"x_max":0,"o":"m 133 981 l 271 981 l 271 0 l 133 0 m 132 1225 l 272 1225 l 394 1049 l 276 1049 l 203 1160 l 200 1160 l 128 1049 l 10 1049 "},"Ï":{"ha":404,"x_min":0,"x_max":0,"o":"m 133 981 l 271 981 l 271 0 l 133 0 m 264 1225 l 375 1225 l 375 1085 l 264 1085 m 32 1225 l 143 1225 l 143 1085 l 32 1085 "},"Ð":{"ha":1054,"x_min":0,"x_max":0,"o":"m 160 433 l 78 433 l 78 547 l 160 547 l 160 981 l 485 981 b 982 492 785 981 982 801 b 485 0 982 181 785 0 l 160 0 m 475 119 b 840 492 696 119 840 250 b 475 861 840 732 694 861 l 297 861 l 297 547 l 504 547 l 504 433 l 297 433 l 297 119 "},"Ñ":{"ha":1051,"x_min":0,"x_max":0,"o":"m 133 981 l 269 981 l 706 343 b 788 201 742 290 788 201 l 790 201 b 781 343 790 201 781 289 l 781 981 l 918 981 l 918 0 l 783 0 l 346 636 b 264 779 310 690 264 779 l 261 779 b 271 636 261 779 271 692 l 271 0 l 133 0 m 292 1050 b 433 1226 292 1167 339 1226 b 608 1132 526 1226 549 1132 b 663 1222 650 1132 663 1182 l 760 1222 b 618 1046 760 1107 713 1046 b 443 1140 525 1046 503 1140 b 389 1050 401 1140 389 1092 l 292 1050 "},"Ò":{"ha":1140,"x_min":0,"x_max":0,"o":"m 67 497 b 571 997 67 779 288 997 b 1074 497 854 997 1074 779 b 571 -17 1074 208 854 -17 b 67 497 288 -17 67 208 m 208 497 b 571 110 208 276 371 110 b 932 497 771 110 932 276 b 571 872 932 711 771 872 b 208 497 371 872 208 711 m 385 1225 l 529 1225 l 631 1049 l 517 1049 "},"Ó":{"ha":1140,"x_min":0,"x_max":0,"o":"m 67 497 b 571 997 67 779 288 997 b 1074 497 854 997 1074 779 b 571 -17 1074 208 854 -17 b 67 497 288 -17 67 208 m 208 497 b 571 110 208 276 371 110 b 932 497 771 110 932 276 b 571 872 932 711 771 872 b 208 497 371 872 208 711 m 613 1225 l 757 1225 l 624 1049 l 511 1049 "},"Ô":{"ha":1140,"x_min":0,"x_max":0,"o":"m 67 497 b 571 997 67 779 288 997 b 1074 497 854 997 1074 779 b 571 -17 1074 208 854 -17 b 67 497 288 -17 67 208 m 208 497 b 571 110 208 276 371 110 b 932 497 771 110 932 276 b 571 872 932 711 771 872 b 208 497 371 872 208 711 m 500 1225 l 640 1225 l 763 1049 l 644 1049 l 571 1160 l 568 1160 l 496 1049 l 378 1049 "},"Õ":{"ha":1140,"x_min":0,"x_max":0,"o":"m 67 497 b 571 997 67 779 288 997 b 1074 497 854 997 1074 779 b 571 -17 1074 208 854 -17 b 67 497 288 -17 67 208 m 208 497 b 571 110 208 276 371 110 b 932 497 771 110 932 276 b 571 872 932 711 771 872 b 208 497 371 872 208 711 m 338 1050 b 479 1226 338 1167 385 1226 b 654 1132 572 1226 594 1132 b 708 1222 696 1132 708 1182 l 806 1222 b 664 1046 806 1107 758 1046 b 489 1140 571 1046 549 1140 b 435 1050 447 1140 435 1092 l 338 1050 "},"Ö":{"ha":1140,"x_min":0,"x_max":0,"o":"m 67 497 b 571 997 67 779 288 997 b 1074 497 854 997 1074 779 b 571 -17 1074 208 854 -17 b 67 497 288 -17 67 208 m 208 497 b 571 110 208 276 371 110 b 932 497 771 110 932 276 b 571 872 932 711 771 872 b 208 497 371 872 208 711 m 632 1225 l 743 1225 l 743 1085 l 632 1085 m 400 1225 l 511 1225 l 511 1085 l 400 1085 "},"×":{"ha":896,"x_min":0,"x_max":0,"o":"m 374 396 l 88 715 l 164 792 l 447 475 l 732 792 l 808 715 l 521 396 l 808 76 l 732 0 l 447 315 l 164 0 l 88 76 "},"Ø":{"ha":1144,"x_min":0,"x_max":0,"o":"m 69 497 b 574 997 69 779 290 997 b 831 929 668 997 756 972 l 894 1017 l 963 969 l 899 881 b 1076 497 1008 790 1076 654 b 574 -17 1076 208 857 -17 b 307 57 475 -17 383 10 l 242 -35 l 172 13 l 240 108 b 69 497 135 201 69 339 m 935 497 b 821 772 935 608 892 706 l 385 164 b 574 110 439 129 504 110 b 935 497 774 110 935 276 m 211 497 b 319 218 211 385 253 288 l 754 822 b 574 872 701 854 639 872 b 211 497 374 872 211 711 "},"Ù":{"ha":1011,"x_min":0,"x_max":0,"o":"m 119 981 l 257 981 l 257 347 b 504 110 257 197 354 110 b 754 350 656 110 754 197 l 754 981 l 892 981 l 892 347 b 506 -17 892 129 735 -17 b 119 347 276 -17 119 129 m 319 1225 l 464 1225 l 565 1049 l 451 1049 "},"Ú":{"ha":1011,"x_min":0,"x_max":0,"o":"m 119 981 l 257 981 l 257 347 b 504 110 257 197 354 110 b 754 350 656 110 754 197 l 754 981 l 892 981 l 892 347 b 506 -17 892 129 735 -17 b 119 347 276 -17 119 129 m 546 1225 l 690 1225 l 557 1049 l 444 1049 "},"Û":{"ha":1011,"x_min":0,"x_max":0,"o":"m 119 981 l 257 981 l 257 347 b 504 110 257 197 354 110 b 754 350 656 110 754 197 l 754 981 l 892 981 l 892 347 b 506 -17 892 129 735 -17 b 119 347 276 -17 119 129 m 435 1225 l 575 1225 l 697 1049 l 579 1049 l 506 1160 l 503 1160 l 431 1049 l 313 1049 "},"Ü":{"ha":1011,"x_min":0,"x_max":0,"o":"m 119 981 l 257 981 l 257 347 b 504 110 257 197 354 110 b 754 350 656 110 754 197 l 754 981 l 892 981 l 892 347 b 506 -17 892 129 735 -17 b 119 347 276 -17 119 129 m 567 1225 l 678 1225 l 678 1085 l 567 1085 m 335 1225 l 446 1225 l 446 1085 l 335 1085 "},"Ý":{"ha":817,"x_min":0,"x_max":0,"o":"m 340 415 l 11 981 l 167 981 l 349 658 b 408 535 379 604 408 535 l 411 535 b 471 658 411 535 440 603 l 650 981 l 806 981 l 478 415 l 478 0 l 340 0 m 450 1225 l 594 1225 l 461 1049 l 349 1049 "},"Þ":{"ha":843,"x_min":0,"x_max":0,"o":"m 133 981 l 269 981 l 269 814 l 492 814 b 799 507 671 814 799 693 b 490 196 799 321 671 196 l 269 196 l 269 0 l 133 0 m 469 315 b 660 507 588 315 660 389 b 471 694 660 625 588 694 l 269 694 l 269 315 "},"ß":{"ha":817,"x_min":0,"x_max":0,"o":"m 106 736 b 406 997 106 907 254 997 b 669 774 560 997 669 897 b 531 515 669 639 531 599 b 779 201 531 428 779 378 b 542 -10 779 60 664 -10 b 344 31 413 -10 344 31 l 344 150 b 525 107 344 150 422 107 b 642 207 586 107 642 136 b 393 511 642 319 393 363 b 533 772 393 626 533 671 b 401 881 533 826 489 881 b 240 726 319 881 240 831 l 240 0 l 106 0 "},"à":{"ha":733,"x_min":0,"x_max":0,"o":"m 49 197 b 472 439 49 429 354 439 l 503 439 l 503 451 b 349 606 503 567 438 606 b 153 538 240 606 153 538 l 97 636 b 360 719 97 636 199 719 b 638 444 538 719 638 622 l 638 0 l 513 0 l 513 67 b 515 122 513 99 515 122 l 513 122 b 288 -17 513 122 456 -17 b 49 197 167 -17 49 57 m 185 204 b 317 92 185 147 229 92 b 504 315 431 92 504 211 l 504 338 l 469 338 b 185 204 368 338 185 331 m 179 981 l 324 981 l 425 804 l 311 804 "},"á":{"ha":733,"x_min":0,"x_max":0,"o":"m 49 197 b 472 439 49 429 354 439 l 503 439 l 503 451 b 349 606 503 567 438 606 b 153 538 240 606 153 538 l 97 636 b 360 719 97 636 199 719 b 638 444 538 719 638 622 l 638 0 l 513 0 l 513 67 b 515 122 513 99 515 122 l 513 122 b 288 -17 513 122 456 -17 b 49 197 167 -17 49 57 m 185 204 b 317 92 185 147 229 92 b 504 315 431 92 504 211 l 504 338 l 469 338 b 185 204 368 338 185 331 m 404 981 l 549 981 l 415 804 l 303 804 "},"â":{"ha":733,"x_min":0,"x_max":0,"o":"m 49 197 b 472 439 49 429 354 439 l 503 439 l 503 451 b 349 606 503 567 438 606 b 153 538 240 606 153 538 l 97 636 b 360 719 97 636 199 719 b 638 444 538 719 638 622 l 638 0 l 513 0 l 513 67 b 515 122 513 99 515 122 l 513 122 b 288 -17 513 122 456 -17 b 49 197 167 -17 49 57 m 185 204 b 317 92 185 147 229 92 b 504 315 431 92 504 211 l 504 338 l 469 338 b 185 204 368 338 185 331 m 293 981 l 433 981 l 556 804 l 438 804 l 364 915 l 361 915 l 289 804 l 171 804 "},"ã":{"ha":733,"x_min":0,"x_max":0,"o":"m 49 197 b 472 439 49 429 354 439 l 503 439 l 503 451 b 349 606 503 567 438 606 b 153 538 240 606 153 538 l 97 636 b 360 719 97 636 199 719 b 638 444 538 719 638 622 l 638 0 l 513 0 l 513 67 b 515 122 513 99 515 122 l 513 122 b 288 -17 513 122 456 -17 b 49 197 167 -17 49 57 m 185 204 b 317 92 185 147 229 92 b 504 315 431 92 504 211 l 504 338 l 469 338 b 185 204 368 338 185 331 m 131 806 b 272 982 131 922 178 982 b 447 888 365 982 388 888 b 501 978 489 888 501 938 l 599 978 b 457 801 599 863 551 801 b 282 896 364 801 342 896 b 228 806 240 896 228 847 l 131 806 "},"ä":{"ha":733,"x_min":0,"x_max":0,"o":"m 49 197 b 472 439 49 429 354 439 l 503 439 l 503 451 b 349 606 503 567 438 606 b 153 538 240 606 153 538 l 97 636 b 360 719 97 636 199 719 b 638 444 538 719 638 622 l 638 0 l 513 0 l 513 67 b 515 122 513 99 515 122 l 513 122 b 288 -17 513 122 456 -17 b 49 197 167 -17 49 57 m 185 204 b 317 92 185 147 229 92 b 504 315 431 92 504 211 l 504 338 l 469 338 b 185 204 368 338 185 331 m 425 981 l 536 981 l 536 840 l 425 840 m 193 981 l 304 981 l 304 840 l 193 840 "},"å":{"ha":733,"x_min":0,"x_max":0,"o":"m 49 197 b 472 439 49 429 354 439 l 503 439 l 503 451 b 349 606 503 567 438 606 b 153 538 240 606 153 538 l 97 636 b 360 719 97 636 199 719 b 638 444 538 719 638 622 l 638 0 l 513 0 l 513 67 b 515 122 513 99 515 122 l 513 122 b 288 -17 513 122 456 -17 b 49 197 167 -17 49 57 m 185 204 b 317 92 185 147 229 92 b 504 315 431 92 504 211 l 504 338 l 469 338 b 185 204 368 338 185 331 m 364 788 b 246 890 301 788 246 826 b 364 994 246 956 301 994 b 482 890 425 994 482 956 b 364 788 482 826 425 788 m 364 844 b 410 890 390 844 410 864 b 364 939 410 919 390 939 b 318 890 336 939 318 919 b 364 844 318 864 336 844 "},"æ":{"ha":1200,"x_min":0,"x_max":0,"o":"m 50 197 b 469 439 50 417 325 439 l 504 439 l 504 451 b 346 606 504 567 439 606 b 153 538 240 606 153 538 l 99 636 b 356 719 99 636 196 719 b 589 596 486 719 554 671 l 592 596 b 849 719 647 678 735 719 b 1142 378 1038 719 1142 569 b 1139 338 1142 363 1139 338 l 635 338 b 868 100 642 179 742 100 b 1076 181 989 100 1076 181 l 1132 83 b 861 -17 1132 83 1028 -17 b 558 160 719 -17 614 50 l 556 160 b 290 -17 543 124 472 -17 b 50 197 161 -17 50 61 m 1006 439 b 839 613 1001 558 925 613 b 640 439 736 613 660 557 m 188 204 b 319 92 188 146 231 92 b 506 317 435 92 506 213 l 506 338 l 440 338 b 188 204 335 338 188 318 "},"ç":{"ha":761,"x_min":0,"x_max":0,"o":"m 57 351 b 433 719 57 560 213 719 b 697 617 610 719 697 617 l 633 522 b 439 603 633 522 558 603 b 194 353 297 603 194 497 b 443 100 194 210 297 100 b 660 194 574 100 660 194 l 714 96 b 450 -17 714 96 622 -10 l 439 -69 b 539 -171 496 -76 539 -111 b 397 -287 539 -257 468 -287 b 321 -278 353 -287 321 -278 l 321 -197 b 379 -207 321 -197 349 -207 b 446 -164 414 -207 446 -196 b 372 -121 446 -135 415 -121 b 347 -122 360 -121 347 -122 l 375 -12 b 57 351 186 13 57 158 "},"è":{"ha":771,"x_min":0,"x_max":0,"o":"m 57 351 b 408 719 57 575 208 719 b 713 390 607 719 713 572 b 708 332 713 372 708 332 l 196 332 b 438 100 203 178 313 100 b 646 182 558 100 646 182 l 701 83 b 429 -17 701 83 597 -17 b 57 351 208 -17 57 143 m 575 433 b 406 613 571 554 496 613 b 200 433 303 613 219 549 m 224 981 l 368 981 l 469 804 l 356 804 "},"é":{"ha":771,"x_min":0,"x_max":0,"o":"m 57 351 b 408 719 57 575 208 719 b 713 390 607 719 713 572 b 708 332 713 372 708 332 l 196 332 b 438 100 203 178 313 100 b 646 182 558 100 646 182 l 701 83 b 429 -17 701 83 597 -17 b 57 351 208 -17 57 143 m 575 433 b 406 613 571 554 496 613 b 200 433 303 613 219 549 m 450 981 l 594 981 l 461 804 l 349 804 "},"ê":{"ha":771,"x_min":0,"x_max":0,"o":"m 57 351 b 408 719 57 575 208 719 b 713 390 607 719 713 572 b 708 332 713 372 708 332 l 196 332 b 438 100 203 178 313 100 b 646 182 558 100 646 182 l 701 83 b 429 -17 701 83 597 -17 b 57 351 208 -17 57 143 m 575 433 b 406 613 571 554 496 613 b 200 433 303 613 219 549 m 338 981 l 478 981 l 600 804 l 482 804 l 408 915 l 406 915 l 333 804 l 215 804 "},"ë":{"ha":771,"x_min":0,"x_max":0,"o":"m 57 351 b 408 719 57 575 208 719 b 713 390 607 719 713 572 b 708 332 713 372 708 332 l 196 332 b 438 100 203 178 313 100 b 646 182 558 100 646 182 l 701 83 b 429 -17 701 83 597 -17 b 57 351 208 -17 57 143 m 575 433 b 406 613 571 554 496 613 b 200 433 303 613 219 549 m 469 981 l 581 981 l 581 840 l 469 840 m 238 981 l 349 981 l 349 840 l 238 840 "},"ì":{"ha":346,"x_min":0,"x_max":0,"o":"m -12 981 l 132 981 l 233 804 l 119 804 m 106 703 l 240 703 l 240 0 l 106 0 "},"í":{"ha":346,"x_min":0,"x_max":0,"o":"m 215 981 l 360 981 l 226 804 l 114 804 m 106 703 l 240 703 l 240 0 l 106 0 "},"î":{"ha":346,"x_min":0,"x_max":0,"o":"m 106 703 l 240 703 l 240 0 l 106 0 m 104 981 l 244 981 l 367 804 l 249 804 l 175 915 l 172 915 l 100 804 l -18 804 "},"ï":{"ha":346,"x_min":0,"x_max":0,"o":"m 235 981 l 346 981 l 346 840 l 235 840 m 3 981 l 114 981 l 114 840 l 3 840 m 106 703 l 240 703 l 240 0 l 106 0 "},"ð":{"ha":818,"x_min":0,"x_max":0,"o":"m 60 326 b 389 647 60 490 175 647 b 560 589 500 647 560 589 l 563 589 b 411 774 533 667 479 728 l 160 663 l 146 749 l 318 825 b 139 889 263 853 200 875 l 176 999 b 464 888 275 976 375 940 l 657 972 l 669 888 l 542 829 b 742 382 658 732 742 585 b 389 -17 742 194 642 -17 b 60 326 178 -17 60 153 m 196 324 b 392 100 196 210 263 100 b 604 358 543 100 604 239 b 408 539 604 463 528 539 b 196 324 264 539 196 432 "},"ñ":{"ha":838,"x_min":0,"x_max":0,"o":"m 106 703 l 236 703 l 236 610 b 233 558 236 582 233 558 l 236 558 b 500 719 264 619 347 719 b 742 450 665 719 742 629 l 742 0 l 607 0 l 607 419 b 474 596 607 518 586 596 b 251 424 367 596 281 525 b 240 329 243 396 240 364 l 240 0 l 106 0 m 201 806 b 343 982 201 922 249 982 b 518 888 436 982 458 888 b 572 978 560 888 572 938 l 669 978 b 528 801 669 863 622 801 b 353 896 435 801 413 896 b 299 806 311 896 299 847 l 201 806 "},"ò":{"ha":867,"x_min":0,"x_max":0,"o":"m 54 353 b 433 719 54 565 224 719 b 813 353 643 719 813 565 b 433 -17 813 139 643 -17 b 54 353 224 -17 54 139 m 192 353 b 433 100 192 206 301 100 b 675 353 567 100 675 206 b 433 603 675 499 567 603 b 192 353 301 603 192 499 m 247 981 l 392 981 l 493 804 l 379 804 "},"ó":{"ha":867,"x_min":0,"x_max":0,"o":"m 54 353 b 433 719 54 565 224 719 b 813 353 643 719 813 565 b 433 -17 813 139 643 -17 b 54 353 224 -17 54 139 m 192 353 b 433 100 192 206 301 100 b 675 353 567 100 675 206 b 433 603 675 499 567 603 b 192 353 301 603 192 499 m 475 981 l 619 981 l 486 804 l 374 804 "},"ô":{"ha":867,"x_min":0,"x_max":0,"o":"m 54 353 b 433 719 54 565 224 719 b 813 353 643 719 813 565 b 433 -17 813 139 643 -17 b 54 353 224 -17 54 139 m 192 353 b 433 100 192 206 301 100 b 675 353 567 100 675 206 b 433 603 675 499 567 603 b 192 353 301 603 192 499 m 364 981 l 504 981 l 626 804 l 508 804 l 435 915 l 432 915 l 360 804 l 242 804 "},"õ":{"ha":867,"x_min":0,"x_max":0,"o":"m 54 353 b 433 719 54 565 224 719 b 813 353 643 719 813 565 b 433 -17 813 139 643 -17 b 54 353 224 -17 54 139 m 192 353 b 433 100 192 206 301 100 b 675 353 567 100 675 206 b 433 603 675 499 567 603 b 192 353 301 603 192 499 m 200 806 b 342 982 200 922 247 982 b 517 888 435 982 457 888 b 571 978 558 888 571 938 l 668 978 b 526 801 668 863 621 801 b 351 896 433 801 411 896 b 297 806 310 896 297 847 l 200 806 "},"ö":{"ha":867,"x_min":0,"x_max":0,"o":"m 54 353 b 433 719 54 565 224 719 b 813 353 643 719 813 565 b 433 -17 813 139 643 -17 b 54 353 224 -17 54 139 m 192 353 b 433 100 192 206 301 100 b 675 353 567 100 675 206 b 433 603 675 499 567 603 b 192 353 301 603 192 499 m 494 981 l 606 981 l 606 840 l 494 840 m 263 981 l 374 981 l 374 840 l 263 840 "},"÷":{"ha":882,"x_min":0,"x_max":0,"o":"m 375 731 l 506 731 l 506 604 l 375 604 m 90 450 l 792 450 l 792 342 l 90 342 m 375 188 l 506 188 l 506 61 l 375 61 "},"ø":{"ha":867,"x_min":0,"x_max":0,"o":"m 54 353 b 433 719 54 565 224 719 b 621 674 501 719 565 703 l 676 750 l 742 703 l 688 628 b 813 353 764 563 813 465 b 433 -17 813 139 643 -17 b 256 24 369 -17 308 -1 l 201 -53 l 135 -4 l 186 68 b 54 353 106 133 54 235 m 192 353 b 261 172 192 279 218 217 l 550 574 b 433 603 515 592 475 603 b 192 353 301 603 192 499 m 675 353 b 613 522 675 421 651 479 l 328 124 b 433 100 360 108 396 100 b 675 353 567 100 675 206 "},"ù":{"ha":831,"x_min":0,"x_max":0,"o":"m 96 703 l 231 703 l 231 283 b 363 108 231 186 250 108 b 590 374 506 108 590 235 l 590 703 l 725 703 l 725 0 l 594 0 l 594 93 b 597 144 594 122 597 144 l 594 144 b 336 -17 565 75 474 -17 b 96 253 178 -17 96 67 m 225 981 l 369 981 l 471 804 l 357 804 "},"ú":{"ha":831,"x_min":0,"x_max":0,"o":"m 96 703 l 231 703 l 231 283 b 363 108 231 186 250 108 b 590 374 506 108 590 235 l 590 703 l 725 703 l 725 0 l 594 0 l 594 93 b 597 144 594 122 597 144 l 594 144 b 336 -17 565 75 474 -17 b 96 253 178 -17 96 67 m 451 981 l 596 981 l 463 804 l 350 804 "},"û":{"ha":831,"x_min":0,"x_max":0,"o":"m 96 703 l 231 703 l 231 283 b 363 108 231 186 250 108 b 590 374 506 108 590 235 l 590 703 l 725 703 l 725 0 l 594 0 l 594 93 b 597 144 594 122 597 144 l 594 144 b 336 -17 565 75 474 -17 b 96 253 178 -17 96 67 m 340 981 l 481 981 l 603 804 l 485 804 l 411 915 l 408 915 l 336 804 l 218 804 "},"ü":{"ha":831,"x_min":0,"x_max":0,"o":"m 96 703 l 231 703 l 231 283 b 363 108 231 186 250 108 b 590 374 506 108 590 235 l 590 703 l 725 703 l 725 0 l 594 0 l 594 93 b 597 144 594 122 597 144 l 594 144 b 336 -17 565 75 474 -17 b 96 253 178 -17 96 67 m 472 981 l 583 981 l 583 840 l 472 840 m 240 981 l 351 981 l 351 840 l 240 840 "},"ý":{"ha":708,"x_min":0,"x_max":0,"o":"m 54 -146 b 136 -175 54 -146 93 -175 b 263 -72 190 -175 236 -136 l 297 8 l 3 703 l 154 703 l 331 243 b 357 158 344 207 357 158 l 360 158 b 383 242 360 158 371 206 l 554 703 l 700 703 l 371 -126 b 143 -292 328 -235 242 -292 b 7 -249 64 -292 7 -249 m 400 981 l 544 981 l 411 804 l 299 804 "},"þ":{"ha":833,"x_min":0,"x_max":0,"o":"m 106 981 l 240 981 l 240 661 b 239 603 240 626 239 603 l 242 603 b 463 719 260 622 315 719 b 775 351 654 719 775 565 b 458 -17 775 135 644 -17 b 240 99 297 -17 240 99 l 238 99 b 240 38 238 99 240 74 l 240 -278 l 106 -278 m 236 350 b 438 100 236 206 314 100 b 638 351 551 100 638 200 b 440 603 638 500 558 603 b 236 350 333 603 236 532 "},"ÿ":{"ha":708,"x_min":0,"x_max":0,"o":"m 54 -146 b 136 -175 54 -146 93 -175 b 263 -72 190 -175 236 -136 l 297 8 l 3 703 l 154 703 l 331 243 b 357 158 344 207 357 158 l 360 158 b 383 242 360 158 371 206 l 554 703 l 700 703 l 371 -126 b 143 -292 328 -235 242 -292 b 7 -249 64 -292 7 -249 m 419 981 l 531 981 l 531 840 l 419 840 m 188 981 l 299 981 l 299 840 l 188 840 "},"Ā":{"ha":872,"x_min":0,"x_max":0,"o":"m 619 282 l 250 282 l 153 0 l 11 0 l 364 981 l 508 981 l 861 0 l 718 0 m 435 846 b 396 707 435 846 413 757 l 286 396 l 583 396 l 475 707 b 438 846 458 757 438 846 m 260 1186 l 614 1186 l 614 1089 l 260 1089 "},"ā":{"ha":733,"x_min":0,"x_max":0,"o":"m 49 197 b 472 439 49 429 354 439 l 503 439 l 503 451 b 349 606 503 567 438 606 b 153 538 240 606 153 538 l 97 636 b 360 719 97 636 199 719 b 638 444 538 719 638 622 l 638 0 l 513 0 l 513 67 b 515 122 513 99 515 122 l 513 122 b 288 -17 513 122 456 -17 b 49 197 167 -17 49 57 m 185 204 b 317 92 185 147 229 92 b 504 315 431 92 504 211 l 504 338 l 469 338 b 185 204 368 338 185 331 m 188 942 l 542 942 l 542 844 l 188 844 "},"Ă":{"ha":872,"x_min":0,"x_max":0,"o":"m 619 282 l 250 282 l 153 0 l 11 0 l 364 981 l 508 981 l 861 0 l 718 0 m 435 846 b 396 707 435 846 413 757 l 286 396 l 583 396 l 475 707 b 438 846 458 757 438 846 m 436 1043 b 253 1206 340 1043 253 1099 l 253 1225 l 353 1225 l 353 1207 b 436 1124 353 1149 393 1124 b 518 1208 476 1124 518 1149 l 518 1225 l 618 1225 l 618 1206 b 436 1043 618 1099 531 1043 "},"ă":{"ha":733,"x_min":0,"x_max":0,"o":"m 49 197 b 472 439 49 429 354 439 l 503 439 l 503 451 b 349 606 503 567 438 606 b 153 538 240 606 153 538 l 97 636 b 360 719 97 636 199 719 b 638 444 538 719 638 622 l 638 0 l 513 0 l 513 67 b 515 122 513 99 515 122 l 513 122 b 288 -17 513 122 456 -17 b 49 197 167 -17 49 57 m 185 204 b 317 92 185 147 229 92 b 504 315 431 92 504 211 l 504 338 l 469 338 b 185 204 368 338 185 331 m 364 799 b 181 961 268 799 181 854 l 181 981 l 281 981 l 281 963 b 364 879 281 904 321 879 b 446 964 404 879 446 904 l 446 981 l 546 981 l 546 961 b 364 799 546 854 458 799 "},"Ą":{"ha":872,"x_min":0,"x_max":0,"o":"m 619 282 l 250 282 l 153 0 l 11 0 l 364 981 l 508 981 l 861 0 b 772 -124 833 -24 772 -76 b 849 -183 772 -176 849 -183 l 817 -287 b 656 -156 817 -287 656 -275 b 751 -3 656 -83 718 -29 l 751 0 l 718 0 m 435 846 b 396 707 435 846 413 757 l 286 396 l 583 396 l 475 707 b 438 846 458 757 438 846 "},"ą":{"ha":733,"x_min":0,"x_max":0,"o":"m 432 -156 b 513 -15 432 -93 478 -44 l 513 67 b 515 122 513 99 515 122 l 513 122 b 288 -17 513 122 456 -17 b 49 197 167 -17 49 57 b 472 439 49 429 354 439 l 503 439 l 503 451 b 349 606 503 567 438 606 b 153 538 240 606 153 538 l 97 636 b 360 719 97 636 199 719 b 638 444 538 719 638 622 l 638 0 b 549 -124 610 -24 549 -76 b 625 -183 549 -176 625 -183 l 593 -287 b 432 -156 593 -287 432 -275 m 185 204 b 317 92 185 147 229 92 b 504 315 431 92 504 211 l 504 338 l 469 338 b 185 204 368 338 185 331 "},"Ć":{"ha":1003,"x_min":0,"x_max":0,"o":"m 67 496 b 565 997 67 781 281 997 b 922 868 801 997 922 868 l 854 765 b 571 872 854 765 740 872 b 208 497 351 872 208 706 b 572 110 208 288 354 110 b 875 238 757 110 875 238 l 949 139 b 568 -17 949 139 814 -17 b 67 496 274 -17 67 208 m 596 1225 l 740 1225 l 607 1049 l 494 1049 "},"ć":{"ha":760,"x_min":0,"x_max":0,"o":"m 56 351 b 432 719 56 560 211 719 b 696 617 608 719 696 617 l 632 522 b 438 603 632 522 557 603 b 193 353 296 603 193 497 b 442 100 193 210 296 100 b 658 194 572 100 658 194 l 713 96 b 432 -17 713 96 615 -17 b 56 351 211 -17 56 140 m 447 981 l 592 981 l 458 804 l 346 804 "},"Ĉ":{"ha":1003,"x_min":0,"x_max":0,"o":"m 67 496 b 565 997 67 781 281 997 b 922 868 801 997 922 868 l 854 765 b 571 872 854 765 740 872 b 208 497 351 872 208 706 b 572 110 208 288 354 110 b 875 238 757 110 875 238 l 949 139 b 568 -17 949 139 814 -17 b 67 496 274 -17 67 208 m 485 1225 l 625 1225 l 747 1049 l 629 1049 l 556 1160 l 553 1160 l 481 1049 l 363 1049 "},"ĉ":{"ha":760,"x_min":0,"x_max":0,"o":"m 56 351 b 432 719 56 560 211 719 b 696 617 608 719 696 617 l 632 522 b 438 603 632 522 557 603 b 193 353 296 603 193 497 b 442 100 193 210 296 100 b 658 194 572 100 658 194 l 713 96 b 432 -17 713 96 615 -17 b 56 351 211 -17 56 140 m 336 981 l 476 981 l 599 804 l 481 804 l 407 915 l 404 915 l 332 804 l 214 804 "},"Ċ":{"ha":1003,"x_min":0,"x_max":0,"o":"m 67 496 b 565 997 67 781 281 997 b 922 868 801 997 922 868 l 854 765 b 571 872 854 765 740 872 b 208 497 351 872 208 706 b 572 110 208 288 354 110 b 875 238 757 110 875 238 l 949 139 b 568 -17 949 139 814 -17 b 67 496 274 -17 67 208 m 494 1225 l 615 1225 l 615 1089 l 494 1089 "},"ċ":{"ha":760,"x_min":0,"x_max":0,"o":"m 56 351 b 432 719 56 560 211 719 b 696 617 608 719 696 617 l 632 522 b 438 603 632 522 557 603 b 193 353 296 603 193 497 b 442 100 193 210 296 100 b 658 194 572 100 658 194 l 713 96 b 432 -17 713 96 615 -17 b 56 351 211 -17 56 140 m 346 981 l 467 981 l 467 844 l 346 844 "},"Č":{"ha":1003,"x_min":0,"x_max":0,"o":"m 67 496 b 565 997 67 781 281 997 b 922 868 801 997 922 868 l 854 765 b 571 872 854 765 740 872 b 208 497 351 872 208 706 b 572 110 208 288 354 110 b 875 238 757 110 875 238 l 949 139 b 568 -17 949 139 814 -17 b 67 496 274 -17 67 208 m 363 1225 l 481 1225 l 553 1113 l 556 1113 l 629 1225 l 747 1225 l 625 1049 l 485 1049 "},"č":{"ha":760,"x_min":0,"x_max":0,"o":"m 56 351 b 432 719 56 560 211 719 b 696 617 608 719 696 617 l 632 522 b 438 603 632 522 557 603 b 193 353 296 603 193 497 b 442 100 193 210 296 100 b 658 194 572 100 658 194 l 713 96 b 432 -17 713 96 615 -17 b 56 351 211 -17 56 140 m 214 981 l 332 981 l 404 868 l 407 868 l 481 981 l 599 981 l 476 804 l 336 804 "},"Ď":{"ha":1028,"x_min":0,"x_max":0,"o":"m 133 981 l 458 981 b 956 492 758 981 956 801 b 458 0 956 181 758 0 l 133 0 m 449 119 b 814 492 669 119 814 250 b 449 861 814 732 668 861 l 271 861 l 271 119 m 286 1225 l 404 1225 l 476 1113 l 479 1113 l 553 1225 l 671 1225 l 549 1049 l 408 1049 "},"ď":{"ha":876,"x_min":0,"x_max":0,"o":"m 60 351 b 378 719 60 575 192 719 b 594 608 540 719 594 608 l 597 608 b 594 656 597 608 594 629 l 594 981 l 729 981 l 729 0 l 601 0 l 601 67 b 603 114 601 94 603 114 l 600 114 b 369 -17 600 114 543 -17 b 60 351 179 -17 60 133 m 197 351 b 396 100 197 199 279 100 b 599 353 500 100 599 174 b 400 603 599 478 533 603 b 197 351 289 603 197 511 m 928 981 b 938 910 935 954 938 932 b 903 779 938 865 925 826 l 800 779 b 826 896 815 822 826 858 b 810 981 826 921 822 949 "},"Đ":{"ha":1054,"x_min":0,"x_max":0,"o":"m 160 433 l 78 433 l 78 547 l 160 547 l 160 981 l 485 981 b 982 492 785 981 982 801 b 485 0 982 181 785 0 l 160 0 m 475 119 b 840 492 696 119 840 250 b 475 861 840 732 694 861 l 297 861 l 297 547 l 504 547 l 504 433 l 297 433 l 297 119 "},"đ":{"ha":835,"x_min":0,"x_max":0,"o":"m 414 869 l 594 869 l 594 981 l 729 981 l 729 869 l 835 869 l 835 782 l 729 782 l 729 0 l 601 0 l 601 67 b 603 114 601 94 603 114 l 600 114 b 369 -17 600 114 543 -17 b 60 351 179 -17 60 133 b 378 719 60 575 192 719 b 594 608 540 719 594 608 l 597 608 b 594 656 597 608 594 629 l 594 782 l 414 782 m 197 351 b 396 100 197 199 279 100 b 599 353 500 100 599 174 b 400 603 599 478 533 603 b 197 351 289 603 197 511 "},"Ē":{"ha":796,"x_min":0,"x_max":0,"o":"m 133 981 l 703 981 l 703 861 l 271 861 l 271 554 l 622 554 l 622 435 l 271 435 l 271 119 l 726 119 l 726 0 l 133 0 m 257 1186 l 611 1186 l 611 1089 l 257 1089 "},"ē":{"ha":771,"x_min":0,"x_max":0,"o":"m 57 351 b 408 719 57 575 208 719 b 713 390 607 719 713 572 b 708 332 713 372 708 332 l 196 332 b 438 100 203 178 313 100 b 646 182 558 100 646 182 l 701 83 b 429 -17 701 83 597 -17 b 57 351 208 -17 57 143 m 575 433 b 406 613 571 554 496 613 b 200 433 303 613 219 549 m 232 942 l 586 942 l 586 844 l 232 844 "},"Ĕ":{"ha":796,"x_min":0,"x_max":0,"o":"m 133 981 l 703 981 l 703 861 l 271 861 l 271 554 l 622 554 l 622 435 l 271 435 l 271 119 l 726 119 l 726 0 l 133 0 m 433 1043 b 250 1206 338 1043 250 1099 l 250 1225 l 350 1225 l 350 1207 b 433 1124 350 1149 390 1124 b 515 1208 474 1124 515 1149 l 515 1225 l 615 1225 l 615 1206 b 433 1043 615 1099 528 1043 "},"ĕ":{"ha":771,"x_min":0,"x_max":0,"o":"m 57 351 b 408 719 57 575 208 719 b 713 390 607 719 713 572 b 708 332 713 372 708 332 l 196 332 b 438 100 203 178 313 100 b 646 182 558 100 646 182 l 701 83 b 429 -17 701 83 597 -17 b 57 351 208 -17 57 143 m 575 433 b 406 613 571 554 496 613 b 200 433 303 613 219 549 m 408 799 b 225 961 313 799 225 854 l 225 981 l 325 981 l 325 963 b 408 879 325 904 365 879 b 490 964 449 879 490 904 l 490 981 l 590 981 l 590 961 b 408 799 590 854 503 799 "},"Ė":{"ha":796,"x_min":0,"x_max":0,"o":"m 133 981 l 703 981 l 703 861 l 271 861 l 271 554 l 622 554 l 622 435 l 271 435 l 271 119 l 726 119 l 726 0 l 133 0 m 372 1225 l 493 1225 l 493 1089 l 372 1089 "},"ė":{"ha":771,"x_min":0,"x_max":0,"o":"m 57 351 b 408 719 57 575 208 719 b 713 390 607 719 713 572 b 708 332 713 372 708 332 l 196 332 b 438 100 203 178 313 100 b 646 182 558 100 646 182 l 701 83 b 429 -17 701 83 597 -17 b 57 351 208 -17 57 143 m 575 433 b 406 613 571 554 496 613 b 200 433 303 613 219 549 m 347 981 l 468 981 l 468 844 l 347 844 "},"Ę":{"ha":796,"x_min":0,"x_max":0,"o":"m 133 981 l 703 981 l 703 861 l 271 861 l 271 554 l 622 554 l 622 435 l 271 435 l 271 119 l 726 119 l 726 0 b 638 -124 699 -24 638 -76 b 714 -183 638 -176 714 -183 l 682 -287 b 521 -156 682 -287 521 -275 b 617 -3 521 -83 583 -29 l 617 0 l 133 0 "},"ę":{"ha":772,"x_min":0,"x_max":0,"o":"m 57 351 b 408 719 57 575 208 719 b 713 390 607 719 713 572 b 708 332 713 372 708 332 l 196 332 b 438 100 203 178 313 100 b 646 182 558 100 646 182 l 701 83 b 514 -124 647 31 514 -31 b 592 -183 514 -176 592 -183 l 560 -287 b 399 -156 560 -287 399 -275 b 476 -15 399 -94 439 -49 l 476 -12 b 429 -17 461 -15 447 -17 b 57 351 208 -17 57 143 m 575 433 b 406 613 571 554 496 613 b 200 433 303 613 219 549 "},"Ě":{"ha":796,"x_min":0,"x_max":0,"o":"m 133 981 l 703 981 l 703 861 l 271 861 l 271 554 l 622 554 l 622 435 l 271 435 l 271 119 l 726 119 l 726 0 l 133 0 m 242 1225 l 360 1225 l 432 1113 l 435 1113 l 508 1225 l 626 1225 l 504 1049 l 364 1049 "},"ě":{"ha":771,"x_min":0,"x_max":0,"o":"m 57 351 b 408 719 57 575 208 719 b 713 390 607 719 713 572 b 708 332 713 372 708 332 l 196 332 b 438 100 203 178 313 100 b 646 182 558 100 646 182 l 701 83 b 429 -17 701 83 597 -17 b 57 351 208 -17 57 143 m 575 433 b 406 613 571 554 496 613 b 200 433 303 613 219 549 m 215 981 l 333 981 l 406 868 l 408 868 l 482 981 l 600 981 l 478 804 l 338 804 "},"Ĝ":{"ha":1056,"x_min":0,"x_max":0,"o":"m 68 492 b 568 997 68 775 282 997 b 925 879 803 997 925 879 l 856 776 b 579 872 856 776 746 872 b 210 494 349 872 210 704 b 571 110 210 267 365 110 b 849 232 740 110 849 232 l 849 374 l 689 374 l 689 493 l 974 493 l 974 0 l 853 0 l 853 61 b 854 103 853 82 854 103 l 851 103 b 550 -17 851 103 744 -17 b 68 492 286 -17 68 192 m 483 1225 l 624 1225 l 746 1049 l 628 1049 l 554 1160 l 551 1160 l 479 1049 l 361 1049 "},"ĝ":{"ha":824,"x_min":0,"x_max":0,"o":"m 168 -128 b 361 -175 168 -128 256 -175 b 583 22 483 -175 583 -121 l 583 74 b 585 118 583 96 585 118 l 582 118 b 374 8 540 49 475 8 b 60 368 178 8 60 165 b 367 719 60 569 172 719 b 588 615 536 719 588 615 l 590 615 b 589 638 590 615 589 625 l 589 703 l 718 703 l 718 29 b 364 -292 718 -203 542 -292 b 124 -233 279 -292 192 -268 l 168 -128 m 400 125 b 586 367 497 125 586 183 b 388 603 586 550 497 603 b 196 371 265 603 196 514 b 400 125 196 225 274 125 m 331 981 l 471 981 l 593 804 l 475 804 l 401 915 l 399 915 l 326 804 l 208 804 "},"Ğ":{"ha":1056,"x_min":0,"x_max":0,"o":"m 68 492 b 568 997 68 775 282 997 b 925 879 803 997 925 879 l 856 776 b 579 872 856 776 746 872 b 210 494 349 872 210 704 b 571 110 210 267 365 110 b 849 232 740 110 849 232 l 849 374 l 689 374 l 689 493 l 974 493 l 974 0 l 853 0 l 853 61 b 854 103 853 82 854 103 l 851 103 b 550 -17 851 103 744 -17 b 68 492 286 -17 68 192 m 554 1043 b 371 1206 458 1043 371 1099 l 371 1225 l 471 1225 l 471 1207 b 554 1124 471 1149 511 1124 b 636 1208 594 1124 636 1149 l 636 1225 l 736 1225 l 736 1206 b 554 1043 736 1099 649 1043 "},"ğ":{"ha":824,"x_min":0,"x_max":0,"o":"m 168 -128 b 361 -175 168 -128 256 -175 b 583 22 483 -175 583 -121 l 583 74 b 585 118 583 96 585 118 l 582 118 b 374 8 540 49 475 8 b 60 368 178 8 60 165 b 367 719 60 569 172 719 b 588 615 536 719 588 615 l 590 615 b 589 638 590 615 589 625 l 589 703 l 718 703 l 718 29 b 364 -292 718 -203 542 -292 b 124 -233 279 -292 192 -268 l 168 -128 m 400 125 b 586 367 497 125 586 183 b 388 603 586 550 497 603 b 196 371 265 603 196 514 b 400 125 196 225 274 125 m 401 799 b 218 961 306 799 218 854 l 218 981 l 318 981 l 318 963 b 401 879 318 904 358 879 b 483 964 442 879 483 904 l 483 981 l 583 981 l 583 961 b 401 799 583 854 496 799 "},"Ġ":{"ha":1056,"x_min":0,"x_max":0,"o":"m 68 492 b 568 997 68 775 282 997 b 925 879 803 997 925 879 l 856 776 b 579 872 856 776 746 872 b 210 494 349 872 210 704 b 571 110 210 267 365 110 b 849 232 740 110 849 232 l 849 374 l 689 374 l 689 493 l 974 493 l 974 0 l 853 0 l 853 61 b 854 103 853 82 854 103 l 851 103 b 550 -17 851 103 744 -17 b 68 492 286 -17 68 192 m 493 1225 l 614 1225 l 614 1089 l 493 1089 "},"ġ":{"ha":824,"x_min":0,"x_max":0,"o":"m 168 -128 b 361 -175 168 -128 256 -175 b 583 22 483 -175 583 -121 l 583 74 b 585 118 583 96 585 118 l 582 118 b 374 8 540 49 475 8 b 60 368 178 8 60 165 b 367 719 60 569 172 719 b 588 615 536 719 588 615 l 590 615 b 589 638 590 615 589 625 l 589 703 l 718 703 l 718 29 b 364 -292 718 -203 542 -292 b 124 -233 279 -292 192 -268 l 168 -128 m 400 125 b 586 367 497 125 586 183 b 388 603 586 550 497 603 b 196 371 265 603 196 514 b 400 125 196 225 274 125 m 340 981 l 461 981 l 461 844 l 340 844 "},"Ģ":{"ha":1056,"x_min":0,"x_max":0,"o":"m 68 492 b 568 997 68 775 282 997 b 925 879 803 997 925 879 l 856 776 b 579 872 856 776 746 872 b 210 494 349 872 210 704 b 571 110 210 267 365 110 b 849 232 740 110 849 232 l 849 374 l 689 374 l 689 493 l 974 493 l 974 0 l 853 0 l 853 61 b 854 103 853 82 854 103 l 851 103 b 550 -17 851 103 744 -17 b 68 492 286 -17 68 192 m 607 -82 b 617 -153 614 -108 617 -131 b 582 -283 617 -197 604 -236 l 479 -283 b 506 -167 494 -240 506 -204 b 489 -82 506 -142 501 -114 "},"ģ":{"ha":824,"x_min":0,"x_max":0,"o":"m 168 -128 b 361 -175 168 -128 256 -175 b 583 22 483 -175 583 -121 l 583 74 b 585 118 583 96 585 118 l 582 118 b 374 8 540 49 475 8 b 60 368 178 8 60 165 b 367 719 60 569 172 719 b 588 615 536 719 588 615 l 590 615 b 589 638 590 615 589 625 l 589 703 l 718 703 l 718 29 b 364 -292 718 -203 542 -292 b 124 -233 279 -292 192 -268 l 168 -128 m 400 125 b 586 367 497 125 586 183 b 388 603 586 550 497 603 b 196 371 265 603 196 514 b 400 125 196 225 274 125 m 346 782 b 336 851 339 808 336 831 b 371 981 336 896 349 933 l 472 981 b 446 865 457 938 446 903 b 463 782 446 840 450 814 "},"Ĥ":{"ha":1050,"x_min":0,"x_max":0,"o":"m 133 981 l 271 981 l 271 550 l 779 550 l 779 981 l 917 981 l 917 0 l 779 0 l 779 431 l 271 431 l 271 0 l 133 0 m 456 1225 l 596 1225 l 718 1049 l 600 1049 l 526 1160 l 524 1160 l 451 1049 l 333 1049 "},"ĥ":{"ha":838,"x_min":0,"x_max":0,"o":"m 106 981 l 240 981 l 240 621 b 238 563 240 588 238 563 l 240 563 b 500 719 271 631 360 719 b 742 450 665 719 742 629 l 742 0 l 607 0 l 607 419 b 474 596 607 518 586 596 b 251 422 368 596 281 524 b 240 329 243 394 240 363 l 240 0 l 106 0 m 103 1225 l 243 1225 l 365 1049 l 247 1049 l 174 1160 l 171 1160 l 99 1049 l -19 1049 "},"Ħ":{"ha":1111,"x_min":0,"x_max":0,"o":"m 164 714 l 78 714 l 78 808 l 164 808 l 164 981 l 301 981 l 301 808 l 810 808 l 810 981 l 947 981 l 947 808 l 1035 808 l 1035 714 l 947 714 l 947 0 l 810 0 l 810 431 l 301 431 l 301 0 l 164 0 m 810 550 l 810 714 l 301 714 l 301 550 "},"ħ":{"ha":838,"x_min":0,"x_max":0,"o":"m 6 869 l 106 869 l 106 981 l 240 981 l 240 869 l 425 869 l 425 782 l 240 782 l 240 621 b 238 563 240 588 238 563 l 240 563 b 500 719 271 631 360 719 b 742 450 665 719 742 629 l 742 0 l 607 0 l 607 419 b 474 596 607 518 586 596 b 251 422 368 596 281 524 b 240 329 243 394 240 363 l 240 0 l 106 0 l 106 782 l 6 782 "},"Ĩ":{"ha":404,"x_min":0,"x_max":0,"o":"m 133 981 l 271 981 l 271 0 l 133 0 m -31 1050 b 111 1226 -31 1167 17 1226 b 286 1132 204 1226 226 1132 b 340 1222 328 1132 340 1182 l 438 1222 b 296 1046 438 1107 390 1046 b 121 1140 203 1046 181 1140 b 67 1050 79 1140 67 1092 l -31 1050 "},"ĩ":{"ha":346,"x_min":0,"x_max":0,"o":"m -60 806 b 82 982 -60 922 -12 982 b 257 888 175 982 197 888 b 311 978 299 888 311 938 l 408 978 b 267 801 408 863 361 801 b 92 896 174 801 151 896 b 38 806 50 896 38 847 l -60 806 m 106 703 l 240 703 l 240 0 l 106 0 "},"Ī":{"ha":404,"x_min":0,"x_max":0,"o":"m 133 981 l 271 981 l 271 0 l 133 0 m 26 1186 l 381 1186 l 381 1089 l 26 1089 "},"ī":{"ha":346,"x_min":0,"x_max":0,"o":"m -3 942 l 351 942 l 351 844 l -3 844 m 106 703 l 240 703 l 240 0 l 106 0 "},"Ĭ":{"ha":404,"x_min":0,"x_max":0,"o":"m 133 981 l 271 981 l 271 0 l 133 0 m 203 1043 b 19 1206 107 1043 19 1099 l 19 1225 l 119 1225 l 119 1207 b 203 1124 119 1149 160 1124 b 285 1208 243 1124 285 1149 l 285 1225 l 385 1225 l 385 1206 b 203 1043 385 1099 297 1043 "},"ĭ":{"ha":346,"x_min":0,"x_max":0,"o":"m 175 799 b -8 961 79 799 -8 854 l -8 981 l 92 981 l 92 963 b 175 879 92 904 132 879 b 257 964 215 879 257 904 l 257 981 l 357 981 l 357 961 b 175 799 357 854 269 799 m 106 703 l 240 703 l 240 0 l 106 0 "},"Į":{"ha":404,"x_min":0,"x_max":0,"o":"m 133 981 l 271 981 l 271 0 b 190 -124 243 -24 190 -76 b 267 -183 190 -176 267 -183 l 235 -287 b 74 -156 235 -287 74 -275 b 161 -3 74 -83 128 -29 l 161 0 l 133 0 "},"į":{"ha":346,"x_min":0,"x_max":0,"o":"m 43 -156 b 106 -24 43 -100 75 -54 l 106 703 l 240 703 l 240 0 b 158 -124 214 -24 158 -76 b 236 -183 158 -176 236 -183 l 204 -287 b 43 -156 204 -287 43 -275 m 104 981 l 240 981 l 240 843 l 104 843 "},"İ":{"ha":404,"x_min":0,"x_max":0,"o":"m 133 981 l 271 981 l 271 0 l 133 0 m 142 1225 l 263 1225 l 263 1089 l 142 1089 "},"ı":{"ha":346,"x_min":0,"x_max":0,"o":"m 106 703 l 240 703 l 240 0 l 106 0 "},"Ĳ":{"ha":850,"x_min":0,"x_max":0,"o":"m 397 119 b 589 333 478 119 589 151 l 589 981 l 728 981 l 728 332 b 397 -7 728 49 549 -7 m 133 981 l 271 981 l 271 0 l 133 0 "},"ĳ":{"ha":693,"x_min":0,"x_max":0,"o":"m 104 981 l 240 981 l 240 843 l 104 843 m 106 703 l 240 703 l 240 0 l 106 0 m 453 981 l 589 981 l 589 843 l 453 843 m 588 703 l 588 -24 b 319 -286 588 -258 407 -286 b 272 -283 290 -286 272 -283 l 272 -168 b 303 -169 272 -168 285 -169 b 454 -15 354 -169 454 -153 l 454 703 "},"Ĵ":{"ha":746,"x_min":0,"x_max":0,"o":"m 42 331 l 178 331 l 178 289 b 333 110 178 156 256 110 b 486 283 410 110 486 154 l 486 861 l 239 861 l 239 981 l 624 981 l 624 282 b 332 -17 624 69 475 -17 b 42 282 189 -17 42 71 m 358 1225 l 499 1225 l 621 1049 l 503 1049 l 429 1160 l 426 1160 l 354 1049 l 236 1049 "},"ĵ":{"ha":344,"x_min":0,"x_max":0,"o":"m 239 703 l 239 -24 b -29 -286 239 -258 58 -286 b -76 -283 -58 -286 -76 -283 l -76 -168 b -46 -169 -76 -168 -64 -169 b 106 -15 6 -169 106 -153 l 106 703 m 104 981 l 235 981 l 357 804 l 243 804 l 171 917 l 168 917 l 96 804 l -18 804 "},"Ķ":{"ha":865,"x_min":0,"x_max":0,"o":"m 133 981 l 271 981 l 271 568 l 417 568 l 664 981 l 815 981 l 531 515 l 531 513 l 833 0 l 678 0 l 417 450 l 271 450 l 271 0 l 133 0 m 501 -82 b 511 -153 508 -108 511 -131 b 476 -283 511 -197 499 -236 l 374 -283 b 400 -167 389 -240 400 -204 b 383 -82 400 -142 396 -114 "},"ķ":{"ha":731,"x_min":0,"x_max":0,"o":"m 106 981 l 240 981 l 240 444 l 339 444 l 531 703 l 683 703 l 450 393 l 450 390 l 710 0 l 553 0 l 342 331 l 240 331 l 240 0 l 106 0 m 436 -82 b 446 -153 443 -108 446 -131 b 411 -283 446 -197 433 -236 l 308 -283 b 335 -167 324 -240 335 -204 b 318 -82 335 -142 331 -114 "},"ĸ":{"ha":735,"x_min":0,"x_max":0,"o":"m 106 703 l 240 703 l 240 426 l 338 426 l 539 703 l 694 703 l 450 375 l 450 372 l 699 0 l 538 0 l 340 313 l 240 313 l 240 0 l 106 0 "},"Ĺ":{"ha":735,"x_min":0,"x_max":0,"o":"m 133 981 l 271 981 l 271 119 l 710 119 l 710 0 l 133 0 m 244 1225 l 389 1225 l 256 1049 l 143 1049 "},"ĺ":{"ha":368,"x_min":0,"x_max":0,"o":"m 97 981 l 232 981 l 232 215 b 307 115 232 131 265 115 b 331 117 319 115 331 117 l 331 -3 b 286 -6 331 -3 310 -6 b 97 192 210 -6 97 15 m 207 1225 l 351 1225 l 218 1049 l 106 1049 "},"Ļ":{"ha":735,"x_min":0,"x_max":0,"o":"m 133 981 l 271 981 l 271 119 l 710 119 l 710 0 l 133 0 m 486 -82 b 496 -153 493 -108 496 -131 b 461 -283 496 -197 483 -236 l 358 -283 b 385 -167 374 -240 385 -204 b 368 -82 385 -142 381 -114 "},"ļ":{"ha":368,"x_min":0,"x_max":0,"o":"m 97 981 l 232 981 l 232 215 b 307 115 232 131 265 115 b 331 117 319 115 331 117 l 331 -3 b 286 -6 331 -3 310 -6 b 97 192 210 -6 97 15 m 271 -82 b 281 -153 278 -108 281 -131 b 246 -283 281 -197 268 -236 l 143 -283 b 169 -167 158 -240 169 -204 b 153 -82 169 -142 165 -114 "},"Ľ":{"ha":735,"x_min":0,"x_max":0,"o":"m 133 981 l 271 981 l 271 119 l 710 119 l 710 0 l 133 0 m 507 981 b 517 910 514 954 517 932 b 482 779 517 865 504 826 l 379 779 b 406 896 394 822 406 858 b 389 981 406 921 401 949 "},"ľ":{"ha":410,"x_min":0,"x_max":0,"o":"m 97 981 l 232 981 l 232 215 b 307 115 232 131 265 115 b 331 117 319 115 331 117 l 331 -3 b 286 -6 331 -3 310 -6 b 97 192 210 -6 97 15 m 432 981 b 442 910 439 954 442 932 b 407 779 442 865 429 826 l 304 779 b 331 896 319 822 331 858 b 314 981 331 921 326 949 "},"Ŀ":{"ha":735,"x_min":0,"x_max":0,"o":"m 133 981 l 271 981 l 271 119 l 710 119 l 710 0 l 133 0 m 433 599 l 571 599 l 571 456 l 433 456 "},"ŀ":{"ha":472,"x_min":0,"x_max":0,"o":"m 97 981 l 232 981 l 232 215 b 307 115 232 131 265 115 b 331 117 319 115 331 117 l 331 -3 b 286 -6 331 -3 310 -6 b 97 192 210 -6 97 15 m 333 599 l 471 599 l 471 456 l 333 456 "},"Ł":{"ha":767,"x_min":0,"x_max":0,"o":"m 83 506 l 165 553 l 165 981 l 303 981 l 303 631 l 454 718 l 454 583 l 303 496 l 303 119 l 742 119 l 742 0 l 165 0 l 165 418 l 83 371 "},"ł":{"ha":446,"x_min":0,"x_max":0,"o":"m 50 517 l 151 575 l 151 981 l 286 981 l 286 653 l 400 718 l 400 583 l 286 518 l 286 215 b 361 115 286 131 319 115 b 385 117 374 115 385 117 l 385 -3 b 340 -6 385 -3 364 -6 b 151 192 264 -6 151 15 l 151 440 l 50 382 "},"Ń":{"ha":1051,"x_min":0,"x_max":0,"o":"m 133 981 l 269 981 l 706 343 b 788 201 742 290 788 201 l 790 201 b 781 343 790 201 781 289 l 781 981 l 918 981 l 918 0 l 783 0 l 346 636 b 264 779 310 690 264 779 l 261 779 b 271 636 261 779 271 692 l 271 0 l 133 0 m 567 1225 l 711 1225 l 578 1049 l 465 1049 "},"ń":{"ha":838,"x_min":0,"x_max":0,"o":"m 106 703 l 236 703 l 236 610 b 233 558 236 582 233 558 l 236 558 b 500 719 264 619 347 719 b 742 450 665 719 742 629 l 742 0 l 607 0 l 607 419 b 474 596 607 518 586 596 b 251 424 367 596 281 525 b 240 329 243 396 240 364 l 240 0 l 106 0 m 476 981 l 621 981 l 488 804 l 375 804 "},"Ņ":{"ha":1051,"x_min":0,"x_max":0,"o":"m 133 981 l 269 981 l 706 343 b 788 201 742 290 788 201 l 790 201 b 781 343 790 201 781 289 l 781 981 l 918 981 l 918 0 l 783 0 l 346 636 b 264 779 310 690 264 779 l 261 779 b 271 636 261 779 271 692 l 271 0 l 133 0 m 582 -82 b 592 -153 589 -108 592 -131 b 557 -283 592 -197 579 -236 l 454 -283 b 481 -167 469 -240 481 -204 b 464 -82 481 -142 476 -114 "},"ņ":{"ha":838,"x_min":0,"x_max":0,"o":"m 106 703 l 236 703 l 236 610 b 233 558 236 582 233 558 l 236 558 b 500 719 264 619 347 719 b 742 450 665 719 742 629 l 742 0 l 607 0 l 607 419 b 474 596 607 518 586 596 b 251 424 367 596 281 525 b 240 329 243 396 240 364 l 240 0 l 106 0 m 478 -82 b 488 -153 485 -108 488 -131 b 453 -283 488 -197 475 -236 l 350 -283 b 376 -167 365 -240 376 -204 b 360 -82 376 -142 372 -114 "},"Ň":{"ha":1051,"x_min":0,"x_max":0,"o":"m 133 981 l 269 981 l 706 343 b 788 201 742 290 788 201 l 790 201 b 781 343 790 201 781 289 l 781 981 l 918 981 l 918 0 l 783 0 l 346 636 b 264 779 310 690 264 779 l 261 779 b 271 636 261 779 271 692 l 271 0 l 133 0 m 333 1225 l 451 1225 l 524 1113 l 526 1113 l 600 1225 l 718 1225 l 596 1049 l 456 1049 "},"ň":{"ha":838,"x_min":0,"x_max":0,"o":"m 106 703 l 236 703 l 236 610 b 233 558 236 582 233 558 l 236 558 b 500 719 264 619 347 719 b 742 450 665 719 742 629 l 742 0 l 607 0 l 607 419 b 474 596 607 518 586 596 b 251 424 367 596 281 525 b 240 329 243 396 240 364 l 240 0 l 106 0 m 242 981 l 360 981 l 432 868 l 435 868 l 508 981 l 626 981 l 504 804 l 364 804 "},"ŉ":{"ha":838,"x_min":0,"x_max":0,"o":"m 106 703 l 236 703 l 236 610 b 233 558 236 582 233 558 l 236 558 b 500 719 264 619 347 719 b 742 450 665 719 742 629 l 742 0 l 607 0 l 607 419 b 474 596 607 518 586 596 b 251 424 367 596 281 525 b 240 329 243 396 240 364 l 240 0 l 106 0 m 122 981 b 132 910 129 954 132 932 b 97 779 132 865 119 826 l -6 779 b 21 896 10 822 21 858 b 4 981 21 921 17 949 "},"Ŋ":{"ha":1050,"x_min":0,"x_max":0,"o":"m 133 981 l 268 981 l 706 343 b 786 201 742 290 785 200 l 789 201 b 781 343 789 201 781 289 l 781 981 l 917 981 l 917 38 b 594 -285 917 -215 744 -285 l 594 -158 b 776 10 667 -158 768 -115 l 344 636 b 264 779 308 689 264 779 l 261 779 b 269 636 261 779 269 692 l 269 0 l 133 0 "},"ŋ":{"ha":838,"x_min":0,"x_max":0,"o":"m 106 703 l 236 703 l 236 599 b 233 558 236 576 233 558 l 236 558 b 500 719 264 619 347 719 b 742 450 667 719 742 629 l 742 -28 b 472 -290 742 -262 560 -290 b 425 -287 444 -290 425 -287 l 425 -172 b 456 -174 425 -172 438 -174 b 607 -18 508 -174 607 -157 l 607 419 b 475 596 607 518 588 596 b 251 424 367 596 281 525 b 240 329 243 396 240 364 l 240 0 l 106 0 "},"Ō":{"ha":1140,"x_min":0,"x_max":0,"o":"m 67 497 b 571 997 67 779 288 997 b 1074 497 854 997 1074 779 b 571 -17 1074 208 854 -17 b 67 497 288 -17 67 208 m 208 497 b 571 110 208 276 371 110 b 932 497 771 110 932 276 b 571 872 932 711 771 872 b 208 497 371 872 208 711 m 394 1186 l 749 1186 l 749 1089 l 394 1089 "},"ō":{"ha":867,"x_min":0,"x_max":0,"o":"m 54 353 b 433 719 54 565 224 719 b 813 353 643 719 813 565 b 433 -17 813 139 643 -17 b 54 353 224 -17 54 139 m 192 353 b 433 100 192 206 301 100 b 675 353 567 100 675 206 b 433 603 675 499 567 603 b 192 353 301 603 192 499 m 257 942 l 611 942 l 611 844 l 257 844 "},"Ŏ":{"ha":1140,"x_min":0,"x_max":0,"o":"m 67 497 b 571 997 67 779 288 997 b 1074 497 854 997 1074 779 b 571 -17 1074 208 854 -17 b 67 497 288 -17 67 208 m 208 497 b 571 110 208 276 371 110 b 932 497 771 110 932 276 b 571 872 932 711 771 872 b 208 497 371 872 208 711 m 571 1043 b 388 1206 475 1043 388 1099 l 388 1225 l 488 1225 l 488 1207 b 571 1124 488 1149 528 1124 b 653 1208 611 1124 653 1149 l 653 1225 l 753 1225 l 753 1206 b 571 1043 753 1099 665 1043 "},"ŏ":{"ha":867,"x_min":0,"x_max":0,"o":"m 54 353 b 433 719 54 565 224 719 b 813 353 643 719 813 565 b 433 -17 813 139 643 -17 b 54 353 224 -17 54 139 m 192 353 b 433 100 192 206 301 100 b 675 353 567 100 675 206 b 433 603 675 499 567 603 b 192 353 301 603 192 499 m 435 799 b 251 961 339 799 251 854 l 251 981 l 351 981 l 351 963 b 435 879 351 904 392 879 b 517 964 475 879 517 904 l 517 981 l 617 981 l 617 961 b 435 799 617 854 529 799 "},"Ő":{"ha":1140,"x_min":0,"x_max":0,"o":"m 67 497 b 571 997 67 779 288 997 b 1074 497 854 997 1074 779 b 571 -17 1074 208 854 -17 b 67 497 288 -17 67 208 m 208 497 b 571 110 208 276 371 110 b 932 497 771 110 932 276 b 571 872 932 711 771 872 b 208 497 371 872 208 711 m 703 1225 l 843 1225 l 710 1049 l 601 1049 m 482 1225 l 603 1225 l 504 1049 l 388 1049 "},"ő":{"ha":867,"x_min":0,"x_max":0,"o":"m 54 353 b 433 719 54 565 224 719 b 813 353 643 719 813 565 b 433 -17 813 139 643 -17 b 54 353 224 -17 54 139 m 192 353 b 433 100 192 206 301 100 b 675 353 567 100 675 206 b 433 603 675 499 567 603 b 192 353 301 603 192 499 m 567 981 l 707 981 l 574 804 l 465 804 m 346 981 l 467 981 l 368 804 l 251 804 "},"Œ":{"ha":1333,"x_min":0,"x_max":0,"o":"m 67 492 b 574 993 67 774 285 993 b 744 981 642 993 696 981 l 1242 981 l 1242 861 l 808 861 l 808 554 l 1161 554 l 1161 435 l 808 435 l 808 119 l 1267 119 l 1267 0 l 746 0 b 574 -12 697 0 642 -12 b 67 492 285 -12 67 208 m 208 492 b 574 107 208 275 358 107 b 672 117 629 107 672 117 l 672 864 b 574 875 672 864 629 875 b 208 492 358 875 208 706 "},"œ":{"ha":1389,"x_min":0,"x_max":0,"o":"m 56 350 b 431 719 56 572 226 719 b 735 553 569 719 674 654 l 738 553 b 1026 719 793 657 892 719 b 1331 390 1225 719 1331 572 b 1326 332 1331 372 1326 332 l 814 332 b 1056 100 825 176 933 100 b 1264 182 1176 100 1264 182 l 1319 83 b 1047 -17 1319 83 1215 -17 b 740 154 901 -17 797 51 l 738 154 b 431 -17 678 50 572 -17 b 56 350 226 -17 56 128 m 1193 433 b 1025 613 1189 553 1115 613 b 818 433 921 613 838 549 m 193 350 b 433 100 193 197 303 100 b 675 354 564 100 675 197 b 433 603 675 506 563 603 b 193 350 303 603 193 503 "},"Ŕ":{"ha":890,"x_min":0,"x_max":0,"o":"m 133 981 l 433 981 b 617 958 536 981 579 972 b 782 693 717 921 782 822 b 606 428 782 568 713 463 l 606 425 b 635 381 606 425 617 413 l 843 0 l 688 0 l 481 390 l 271 390 l 271 0 l 133 0 m 468 510 b 642 688 575 510 642 578 b 564 839 642 760 614 811 b 429 861 538 853 506 861 l 271 861 l 271 510 m 469 1225 l 614 1225 l 481 1049 l 368 1049 "},"ŕ":{"ha":521,"x_min":0,"x_max":0,"o":"m 106 703 l 236 703 l 236 581 b 233 528 236 551 233 528 l 236 528 b 458 711 268 631 350 711 b 493 708 476 711 493 708 l 493 575 b 454 579 493 575 475 579 b 257 414 368 579 289 518 b 240 288 244 374 240 331 l 240 0 l 106 0 m 353 981 l 497 981 l 364 804 l 251 804 "},"Ŗ":{"ha":890,"x_min":0,"x_max":0,"o":"m 133 981 l 433 981 b 617 958 536 981 579 972 b 782 693 717 921 782 822 b 606 428 782 568 713 463 l 606 425 b 635 381 606 425 617 413 l 843 0 l 688 0 l 481 390 l 271 390 l 271 0 l 133 0 m 468 510 b 642 688 575 510 642 578 b 564 839 642 760 614 811 b 429 861 538 853 506 861 l 271 861 l 271 510 m 513 -82 b 522 -153 519 -108 522 -131 b 488 -283 522 -197 510 -236 l 385 -283 b 411 -167 400 -240 411 -204 b 394 -82 411 -142 407 -114 "},"ŗ":{"ha":521,"x_min":0,"x_max":0,"o":"m 106 703 l 236 703 l 236 581 b 233 528 236 551 233 528 l 236 528 b 458 711 268 631 350 711 b 493 708 476 711 493 708 l 493 575 b 454 579 493 575 475 579 b 257 414 368 579 289 518 b 240 288 244 374 240 331 l 240 0 l 106 0 m 231 -82 b 240 -153 238 -108 240 -131 b 206 -283 240 -197 228 -236 l 103 -283 b 129 -167 118 -240 129 -204 b 113 -82 129 -142 125 -114 "},"Ř":{"ha":890,"x_min":0,"x_max":0,"o":"m 133 981 l 433 981 b 617 958 536 981 579 972 b 782 693 717 921 782 822 b 606 428 782 568 713 463 l 606 425 b 635 381 606 425 617 413 l 843 0 l 688 0 l 481 390 l 271 390 l 271 0 l 133 0 m 468 510 b 642 688 575 510 642 578 b 564 839 642 760 614 811 b 429 861 538 853 506 861 l 271 861 l 271 510 m 236 1225 l 354 1225 l 426 1113 l 429 1113 l 503 1225 l 621 1225 l 499 1049 l 358 1049 "},"ř":{"ha":521,"x_min":0,"x_max":0,"o":"m 106 703 l 236 703 l 236 581 b 233 528 236 551 233 528 l 236 528 b 458 711 268 631 350 711 b 493 708 476 711 493 708 l 493 575 b 454 579 493 575 475 579 b 257 414 368 579 289 518 b 240 288 244 374 240 331 l 240 0 l 106 0 m 121 981 l 239 981 l 311 868 l 314 868 l 388 981 l 506 981 l 383 804 l 243 804 "},"Ś":{"ha":758,"x_min":0,"x_max":0,"o":"m 136 217 b 386 111 136 217 240 111 b 556 256 478 111 556 163 b 81 724 556 468 81 422 b 397 997 81 876 213 997 b 675 899 579 997 675 899 l 613 785 b 397 869 613 785 522 869 b 219 726 293 869 219 804 b 694 260 219 524 694 578 b 383 -17 694 108 578 -17 b 58 113 175 -17 58 113 m 424 1225 l 568 1225 l 435 1049 l 322 1049 "},"ś":{"ha":622,"x_min":0,"x_max":0,"o":"m 114 182 b 315 100 114 182 193 100 b 432 188 374 100 432 131 b 71 519 432 317 71 290 b 325 719 71 647 185 719 b 551 642 479 719 551 642 l 497 540 b 324 603 497 540 435 603 b 208 517 265 603 208 578 b 569 188 208 390 569 418 b 315 -17 569 71 469 -17 b 49 86 143 -17 49 86 m 358 981 l 503 981 l 369 804 l 257 804 "},"Ŝ":{"ha":758,"x_min":0,"x_max":0,"o":"m 136 217 b 386 111 136 217 240 111 b 556 256 478 111 556 163 b 81 724 556 468 81 422 b 397 997 81 876 213 997 b 675 899 579 997 675 899 l 613 785 b 397 869 613 785 522 869 b 219 726 293 869 219 804 b 694 260 219 524 694 578 b 383 -17 694 108 578 -17 b 58 113 175 -17 58 113 m 313 1225 l 453 1225 l 575 1049 l 457 1049 l 383 1160 l 381 1160 l 308 1049 l 190 1049 "},"ŝ":{"ha":622,"x_min":0,"x_max":0,"o":"m 114 182 b 315 100 114 182 193 100 b 432 188 374 100 432 131 b 71 519 432 317 71 290 b 325 719 71 647 185 719 b 551 642 479 719 551 642 l 497 540 b 324 603 497 540 435 603 b 208 517 265 603 208 578 b 569 188 208 390 569 418 b 315 -17 569 71 469 -17 b 49 86 143 -17 49 86 m 247 981 l 388 981 l 510 804 l 392 804 l 318 915 l 315 915 l 243 804 l 125 804 "},"Ş":{"ha":758,"x_min":0,"x_max":0,"o":"m 136 217 b 386 111 136 217 240 111 b 556 256 478 111 556 163 b 81 724 556 468 81 422 b 397 997 81 876 213 997 b 675 899 579 997 675 899 l 613 785 b 397 869 613 785 522 869 b 219 726 293 869 219 804 b 694 260 219 524 694 578 b 419 -15 694 118 592 0 l 408 -69 b 508 -171 465 -76 508 -111 b 367 -287 508 -257 438 -287 b 290 -278 322 -287 290 -278 l 290 -197 b 349 -207 290 -197 318 -207 b 415 -164 383 -207 415 -196 b 342 -121 415 -135 385 -121 b 317 -122 329 -121 317 -122 l 344 -15 b 58 113 160 0 58 113 "},"ş":{"ha":622,"x_min":0,"x_max":0,"o":"m 114 182 b 315 100 114 182 193 100 b 432 188 374 100 432 131 b 71 519 432 317 71 290 b 325 719 71 647 185 719 b 551 642 479 719 551 642 l 497 540 b 324 603 497 540 435 603 b 208 517 265 603 208 578 b 569 188 208 390 569 418 b 346 -15 569 79 482 -4 l 335 -69 b 435 -171 392 -76 435 -111 b 293 -287 435 -257 364 -287 b 217 -278 249 -287 217 -278 l 217 -197 b 275 -207 217 -197 244 -207 b 342 -164 310 -207 342 -196 b 268 -121 342 -135 311 -121 b 243 -122 256 -121 243 -122 l 271 -14 b 49 86 126 0 49 86 "},"Š":{"ha":758,"x_min":0,"x_max":0,"o":"m 136 217 b 386 111 136 217 240 111 b 556 256 478 111 556 163 b 81 724 556 468 81 422 b 397 997 81 876 213 997 b 675 899 579 997 675 899 l 613 785 b 397 869 613 785 522 869 b 219 726 293 869 219 804 b 694 260 219 524 694 578 b 383 -17 694 108 578 -17 b 58 113 175 -17 58 113 m 190 1225 l 308 1225 l 381 1113 l 383 1113 l 457 1225 l 575 1225 l 453 1049 l 313 1049 "},"š":{"ha":622,"x_min":0,"x_max":0,"o":"m 114 182 b 315 100 114 182 193 100 b 432 188 374 100 432 131 b 71 519 432 317 71 290 b 325 719 71 647 185 719 b 551 642 479 719 551 642 l 497 540 b 324 603 497 540 435 603 b 208 517 265 603 208 578 b 569 188 208 390 569 418 b 315 -17 569 71 469 -17 b 49 86 143 -17 49 86 m 125 981 l 243 981 l 315 868 l 318 868 l 392 981 l 510 981 l 388 804 l 247 804 "},"Ţ":{"ha":824,"x_min":0,"x_max":0,"o":"m 343 861 l 7 861 l 7 981 l 817 981 l 817 861 l 481 861 l 481 0 l 450 0 l 435 -69 b 535 -171 492 -76 535 -111 b 393 -287 535 -257 464 -287 b 317 -278 349 -287 317 -278 l 317 -197 b 375 -207 317 -197 344 -207 b 442 -164 410 -207 442 -196 b 368 -121 442 -135 411 -121 b 343 -122 356 -121 343 -122 l 375 0 l 343 0 "},"ţ":{"ha":499,"x_min":0,"x_max":0,"o":"m 136 585 l 44 585 l 44 693 l 140 693 l 140 896 l 271 896 l 271 693 l 440 693 l 440 585 l 271 585 l 271 272 b 421 114 271 132 369 114 b 453 117 440 114 453 117 l 453 -3 b 406 -6 453 -3 433 -6 b 326 1 383 -6 356 -4 l 311 -69 b 411 -171 368 -76 411 -111 b 269 -287 411 -257 340 -287 b 193 -278 225 -287 193 -278 l 193 -197 b 251 -207 193 -197 221 -207 b 318 -164 286 -207 318 -196 b 244 -121 318 -135 288 -121 b 219 -122 232 -121 219 -122 l 258 25 b 136 257 193 58 136 125 "},"Ť":{"ha":824,"x_min":0,"x_max":0,"o":"m 343 861 l 7 861 l 7 981 l 817 981 l 817 861 l 481 861 l 481 0 l 343 0 m 219 1225 l 338 1225 l 410 1113 l 413 1113 l 486 1225 l 604 1225 l 482 1049 l 342 1049 "},"ť":{"ha":497,"x_min":0,"x_max":0,"o":"m 135 585 l 43 585 l 43 693 l 139 693 l 139 896 l 269 896 l 269 693 l 439 693 l 439 585 l 269 585 l 269 272 b 419 114 269 132 368 114 b 451 117 439 114 451 117 l 451 -3 b 404 -6 451 -3 432 -6 b 135 257 314 -6 135 22 m 471 982 b 481 913 478 956 481 933 b 446 785 481 869 468 831 l 343 785 b 369 899 358 828 369 863 b 353 982 369 924 365 950 "},"Ŧ":{"ha":856,"x_min":0,"x_max":0,"o":"m 142 536 l 358 536 l 358 861 l 22 861 l 22 981 l 832 981 l 832 861 l 496 861 l 496 536 l 718 536 l 718 431 l 496 431 l 496 0 l 358 0 l 358 431 l 142 431 "},"ŧ":{"ha":529,"x_min":0,"x_max":0,"o":"m 56 454 l 153 454 l 153 585 l 61 585 l 61 693 l 157 693 l 157 896 l 288 896 l 288 693 l 457 693 l 457 585 l 288 585 l 288 454 l 450 454 l 450 360 l 288 360 l 288 267 b 438 114 288 133 386 114 b 469 117 457 114 469 117 l 469 -3 b 422 -6 469 -3 450 -6 b 153 257 332 -6 153 22 l 153 360 l 56 360 "},"Ũ":{"ha":1011,"x_min":0,"x_max":0,"o":"m 119 981 l 257 981 l 257 347 b 504 110 257 197 354 110 b 754 350 656 110 754 197 l 754 981 l 892 981 l 892 347 b 506 -17 892 129 735 -17 b 119 347 276 -17 119 129 m 272 1050 b 414 1226 272 1167 319 1226 b 589 1132 507 1226 529 1132 b 643 1222 631 1132 643 1182 l 740 1222 b 599 1046 740 1107 693 1046 b 424 1140 506 1046 483 1140 b 369 1050 382 1140 369 1092 l 272 1050 "},"ũ":{"ha":831,"x_min":0,"x_max":0,"o":"m 96 703 l 231 703 l 231 283 b 363 108 231 186 250 108 b 590 374 506 108 590 235 l 590 703 l 725 703 l 725 0 l 594 0 l 594 93 b 597 144 594 122 597 144 l 594 144 b 336 -17 565 75 474 -17 b 96 253 178 -17 96 67 m 178 806 b 319 982 178 922 225 982 b 494 888 413 982 435 888 b 549 978 536 888 549 938 l 646 978 b 504 801 646 863 599 801 b 329 896 411 801 389 896 b 275 806 288 896 275 847 l 178 806 "},"Ū":{"ha":1011,"x_min":0,"x_max":0,"o":"m 119 981 l 257 981 l 257 347 b 504 110 257 197 354 110 b 754 350 656 110 754 197 l 754 981 l 892 981 l 892 347 b 506 -17 892 129 735 -17 b 119 347 276 -17 119 129 m 329 1186 l 683 1186 l 683 1089 l 329 1089 "},"ū":{"ha":831,"x_min":0,"x_max":0,"o":"m 96 703 l 231 703 l 231 283 b 363 108 231 186 250 108 b 590 374 506 108 590 235 l 590 703 l 725 703 l 725 0 l 594 0 l 594 93 b 597 144 594 122 597 144 l 594 144 b 336 -17 565 75 474 -17 b 96 253 178 -17 96 67 m 235 942 l 589 942 l 589 844 l 235 844 "},"Ŭ":{"ha":1011,"x_min":0,"x_max":0,"o":"m 119 981 l 257 981 l 257 347 b 504 110 257 197 354 110 b 754 350 656 110 754 197 l 754 981 l 892 981 l 892 347 b 506 -17 892 129 735 -17 b 119 347 276 -17 119 129 m 506 1043 b 322 1206 410 1043 322 1099 l 322 1225 l 422 1225 l 422 1207 b 506 1124 422 1149 463 1124 b 588 1208 546 1124 588 1149 l 588 1225 l 688 1225 l 688 1206 b 506 1043 688 1099 600 1043 "},"ŭ":{"ha":831,"x_min":0,"x_max":0,"o":"m 96 703 l 231 703 l 231 283 b 363 108 231 186 250 108 b 590 374 506 108 590 235 l 590 703 l 725 703 l 725 0 l 594 0 l 594 93 b 597 144 594 122 597 144 l 594 144 b 336 -17 565 75 474 -17 b 96 253 178 -17 96 67 m 411 799 b 228 961 315 799 228 854 l 228 981 l 328 981 l 328 963 b 411 879 328 904 368 879 b 493 964 451 879 493 904 l 493 981 l 593 981 l 593 961 b 411 799 593 854 506 799 "},"Ů":{"ha":1011,"x_min":0,"x_max":0,"o":"m 119 981 l 257 981 l 257 347 b 504 110 257 197 354 110 b 754 350 656 110 754 197 l 754 981 l 892 981 l 892 347 b 506 -17 892 129 735 -17 b 119 347 276 -17 119 129 m 506 1032 b 388 1135 443 1032 388 1071 b 506 1239 388 1200 443 1239 b 624 1135 567 1239 624 1200 b 506 1032 624 1071 567 1032 m 506 1089 b 551 1135 532 1089 551 1108 b 506 1183 551 1164 532 1183 b 460 1135 478 1183 460 1164 b 506 1089 460 1108 478 1089 "},"ů":{"ha":831,"x_min":0,"x_max":0,"o":"m 96 703 l 231 703 l 231 283 b 363 108 231 186 250 108 b 590 374 506 108 590 235 l 590 703 l 725 703 l 725 0 l 594 0 l 594 93 b 597 144 594 122 597 144 l 594 144 b 336 -17 565 75 474 -17 b 96 253 178 -17 96 67 m 411 788 b 293 890 349 788 293 826 b 411 994 293 956 349 994 b 529 890 472 994 529 956 b 411 788 529 826 472 788 m 411 844 b 457 890 438 844 457 864 b 411 939 457 919 438 939 b 365 890 383 939 365 919 b 411 844 365 864 383 844 "},"Ű":{"ha":1011,"x_min":0,"x_max":0,"o":"m 119 981 l 257 981 l 257 347 b 504 110 257 197 354 110 b 754 350 656 110 754 197 l 754 981 l 892 981 l 892 347 b 506 -17 892 129 735 -17 b 119 347 276 -17 119 129 m 638 1225 l 778 1225 l 644 1049 l 536 1049 m 417 1225 l 538 1225 l 439 1049 l 322 1049 "},"ű":{"ha":831,"x_min":0,"x_max":0,"o":"m 96 703 l 231 703 l 231 283 b 363 108 231 186 250 108 b 590 374 506 108 590 235 l 590 703 l 725 703 l 725 0 l 594 0 l 594 93 b 597 144 594 122 597 144 l 594 144 b 336 -17 565 75 474 -17 b 96 253 178 -17 96 67 m 543 981 l 683 981 l 550 804 l 442 804 m 322 981 l 443 981 l 344 804 l 228 804 "},"Ų":{"ha":1010,"x_min":0,"x_max":0,"o":"m 451 -156 b 524 -17 451 -97 488 -50 l 504 -17 b 119 347 275 -17 119 129 l 119 981 l 256 981 l 256 347 b 503 110 256 197 353 110 b 753 350 654 110 753 197 l 753 981 l 889 981 l 889 347 b 701 25 889 164 790 85 b 567 -124 631 -24 567 -67 b 644 -183 567 -176 644 -183 l 613 -287 b 451 -156 613 -287 451 -275 "},"ų":{"ha":831,"x_min":0,"x_max":0,"o":"m 96 703 l 231 703 l 231 283 b 363 108 231 186 250 108 b 590 374 506 108 590 235 l 590 703 l 725 703 l 725 0 b 635 -124 696 -24 635 -76 b 713 -183 635 -176 713 -183 l 681 -287 b 519 -156 681 -287 519 -275 b 594 -17 519 -96 561 -47 l 594 93 b 597 144 594 122 597 144 l 594 144 b 336 -17 565 75 474 -17 b 96 253 178 -17 96 67 "},"Ŵ":{"ha":1317,"x_min":0,"x_max":0,"o":"m 717 981 l 908 261 b 929 157 922 207 929 157 l 932 157 b 950 261 932 157 936 208 l 1131 981 l 1272 981 l 1015 0 l 856 0 l 686 636 b 657 775 669 699 657 775 l 654 775 b 625 636 654 775 642 699 l 456 0 l 296 0 l 46 981 l 188 981 l 361 261 b 379 157 374 208 379 157 l 382 157 b 403 261 382 157 389 207 l 594 981 m 592 1225 l 732 1225 l 854 1049 l 736 1049 l 663 1160 l 660 1160 l 588 1049 l 469 1049 "},"ŵ":{"ha":1131,"x_min":0,"x_max":0,"o":"m 24 703 l 167 703 l 313 210 b 331 135 324 174 329 135 l 333 135 b 351 210 333 135 340 174 l 504 701 l 628 701 l 779 210 b 799 135 790 174 799 135 l 801 135 b 818 210 801 135 807 174 l 965 703 l 1107 703 l 881 0 l 732 0 l 586 451 b 567 528 575 488 567 528 l 564 528 b 544 451 564 528 556 488 l 400 0 l 250 0 m 496 981 l 636 981 l 758 804 l 640 804 l 567 915 l 564 915 l 492 804 l 374 804 "},"Ŷ":{"ha":817,"x_min":0,"x_max":0,"o":"m 340 415 l 11 981 l 167 981 l 349 658 b 408 535 379 604 408 535 l 411 535 b 471 658 411 535 440 603 l 650 981 l 806 981 l 478 415 l 478 0 l 340 0 m 339 1225 l 479 1225 l 601 1049 l 483 1049 l 410 1160 l 407 1160 l 335 1049 l 217 1049 "},"ŷ":{"ha":708,"x_min":0,"x_max":0,"o":"m 54 -146 b 136 -175 54 -146 93 -175 b 263 -72 190 -175 236 -136 l 297 8 l 3 703 l 154 703 l 331 243 b 357 158 344 207 357 158 l 360 158 b 383 242 360 158 371 206 l 554 703 l 700 703 l 371 -126 b 143 -292 328 -235 242 -292 b 7 -249 64 -292 7 -249 m 288 981 l 428 981 l 550 804 l 432 804 l 358 915 l 356 915 l 283 804 l 165 804 "},"Ÿ":{"ha":817,"x_min":0,"x_max":0,"o":"m 340 415 l 11 981 l 167 981 l 349 658 b 408 535 379 604 408 535 l 411 535 b 471 658 411 535 440 603 l 650 981 l 806 981 l 478 415 l 478 0 l 340 0 m 465 1225 l 576 1225 l 576 1085 l 465 1085 m 233 1225 l 344 1225 l 344 1085 l 233 1085 "},"Ź":{"ha":843,"x_min":0,"x_max":0,"o":"m 57 92 l 529 772 b 600 863 567 828 600 863 l 600 865 b 526 861 600 865 574 861 l 82 861 l 82 981 l 771 981 l 771 890 l 299 208 b 228 119 261 154 228 119 l 228 117 b 301 119 228 117 254 119 l 776 119 l 776 0 l 57 0 m 476 1225 l 621 1225 l 488 1049 l 375 1049 "},"ź":{"ha":718,"x_min":0,"x_max":0,"o":"m 54 78 l 408 522 b 467 588 439 560 467 588 l 467 590 b 399 588 467 590 444 588 l 69 588 l 69 703 l 649 703 l 649 625 l 294 179 b 235 115 265 143 235 115 l 235 113 b 304 115 235 113 258 115 l 661 115 l 661 0 l 54 0 m 396 981 l 540 981 l 407 804 l 294 804 "},"Ż":{"ha":843,"x_min":0,"x_max":0,"o":"m 57 92 l 529 772 b 600 863 567 828 600 863 l 600 865 b 526 861 600 865 574 861 l 82 861 l 82 981 l 771 981 l 771 890 l 299 208 b 228 119 261 154 228 119 l 228 117 b 301 119 228 117 254 119 l 776 119 l 776 0 l 57 0 m 375 1225 l 496 1225 l 496 1089 l 375 1089 "},"ż":{"ha":718,"x_min":0,"x_max":0,"o":"m 54 78 l 408 522 b 467 588 439 560 467 588 l 467 590 b 399 588 467 590 444 588 l 69 588 l 69 703 l 649 703 l 649 625 l 294 179 b 235 115 265 143 235 115 l 235 113 b 304 115 235 113 258 115 l 661 115 l 661 0 l 54 0 m 293 981 l 414 981 l 414 844 l 293 844 "},"Ž":{"ha":843,"x_min":0,"x_max":0,"o":"m 57 92 l 529 772 b 600 863 567 828 600 863 l 600 865 b 526 861 600 865 574 861 l 82 861 l 82 981 l 771 981 l 771 890 l 299 208 b 228 119 261 154 228 119 l 228 117 b 301 119 228 117 254 119 l 776 119 l 776 0 l 57 0 m 243 1225 l 361 1225 l 433 1113 l 436 1113 l 510 1225 l 628 1225 l 506 1049 l 365 1049 "},"ž":{"ha":718,"x_min":0,"x_max":0,"o":"m 54 78 l 408 522 b 467 588 439 560 467 588 l 467 590 b 399 588 467 590 444 588 l 69 588 l 69 703 l 649 703 l 649 625 l 294 179 b 235 115 265 143 235 115 l 235 113 b 304 115 235 113 258 115 l 661 115 l 661 0 l 54 0 m 161 981 l 279 981 l 351 868 l 354 868 l 428 981 l 546 981 l 424 804 l 283 804 "},"ſ":{"ha":383,"x_min":0,"x_max":0,"o":"m 143 585 l 56 585 l 56 693 l 143 693 l 143 726 b 408 988 143 958 319 988 b 460 983 439 988 460 983 l 460 868 b 425 871 460 868 446 871 b 278 722 372 871 278 853 l 278 0 l 143 0 "},"ƒ":{"ha":790,"x_min":0,"x_max":0,"o":"m 39 -29 b 129 -37 39 -29 92 -37 b 289 117 181 -37 276 -19 l 321 486 l 207 486 l 207 594 l 331 594 l 344 736 b 632 997 365 968 542 997 b 749 988 683 997 749 988 l 749 871 b 638 881 749 871 679 881 b 478 726 585 881 490 863 l 465 594 l 628 594 l 628 486 l 456 486 l 422 106 b 136 -154 401 -126 225 -154 b 39 -146 88 -154 39 -146 l 39 -29 "},"Ș":{"ha":758,"x_min":0,"x_max":0,"o":"m 136 217 b 386 111 136 217 240 111 b 556 256 478 111 556 163 b 81 724 556 468 81 422 b 397 997 81 876 213 997 b 675 899 579 997 675 899 l 613 785 b 397 869 613 785 522 869 b 219 726 293 869 219 804 b 694 260 219 524 694 578 b 383 -17 694 108 578 -17 b 58 113 175 -17 58 113 m 432 -82 b 442 -153 439 -108 442 -131 b 407 -283 442 -197 429 -236 l 304 -283 b 331 -167 319 -240 331 -204 b 314 -82 331 -142 326 -114 "},"ș":{"ha":622,"x_min":0,"x_max":0,"o":"m 114 182 b 315 100 114 182 193 100 b 432 188 374 100 432 131 b 71 519 432 317 71 290 b 325 719 71 647 185 719 b 551 642 479 719 551 642 l 497 540 b 324 603 497 540 435 603 b 208 517 265 603 208 578 b 569 188 208 390 569 418 b 315 -17 569 71 469 -17 b 49 86 143 -17 49 86 m 369 -82 b 379 -153 376 -108 379 -131 b 344 -283 379 -197 367 -236 l 242 -283 b 268 -167 257 -240 268 -204 b 251 -82 268 -142 264 -114 "},"Ț":{"ha":824,"x_min":0,"x_max":0,"o":"m 343 861 l 7 861 l 7 981 l 817 981 l 817 861 l 481 861 l 481 0 l 343 0 m 465 -82 b 475 -153 472 -108 475 -131 b 440 -283 475 -197 463 -236 l 338 -283 b 364 -167 353 -240 364 -204 b 347 -82 364 -142 360 -114 "},"ț":{"ha":497,"x_min":0,"x_max":0,"o":"m 135 585 l 43 585 l 43 693 l 139 693 l 139 896 l 269 896 l 269 693 l 439 693 l 439 585 l 269 585 l 269 272 b 419 114 269 132 368 114 b 451 117 439 114 451 117 l 451 -3 b 404 -6 451 -3 432 -6 b 135 257 314 -6 135 22 m 360 -82 b 369 -153 367 -108 369 -131 b 335 -283 369 -197 357 -236 l 232 -283 b 258 -167 247 -240 258 -204 b 242 -82 258 -142 254 -114 "},"ˆ":{"ha":693,"x_min":0,"x_max":0,"o":"m 276 1225 l 417 1225 l 539 1049 l 421 1049 l 347 1160 l 344 1160 l 272 1049 l 154 1049 "},"ˇ":{"ha":693,"x_min":0,"x_max":0,"o":"m 154 1225 l 272 1225 l 344 1113 l 347 1113 l 421 1225 l 539 1225 l 417 1049 l 276 1049 "},"˘":{"ha":693,"x_min":0,"x_max":0,"o":"m 347 1043 b 164 1206 251 1043 164 1099 l 164 1225 l 264 1225 l 264 1207 b 347 1124 264 1149 304 1124 b 429 1208 388 1124 429 1149 l 429 1225 l 529 1225 l 529 1206 b 347 1043 529 1099 442 1043 "},"˙":{"ha":694,"x_min":0,"x_max":0,"o":"m 286 1225 l 407 1225 l 407 1089 l 286 1089 "},"˚":{"ha":694,"x_min":0,"x_max":0,"o":"m 347 1032 b 229 1135 285 1032 229 1071 b 347 1239 229 1200 285 1239 b 465 1135 408 1239 465 1200 b 347 1032 465 1071 408 1032 m 347 1089 b 393 1135 374 1089 393 1108 b 347 1183 393 1164 374 1183 b 301 1135 319 1183 301 1164 b 347 1089 301 1108 319 1089 "},"˛":{"ha":693,"x_min":0,"x_max":0,"o":"m 236 -156 b 374 32 236 -44 374 32 l 458 14 b 351 -124 458 14 351 -61 b 429 -183 351 -176 429 -183 l 397 -287 b 236 -156 397 -287 236 -275 "},"˜":{"ha":693,"x_min":0,"x_max":0,"o":"m 113 1050 b 254 1226 113 1167 160 1226 b 429 1132 347 1226 369 1132 b 483 1222 471 1132 483 1182 l 581 1222 b 439 1046 581 1107 533 1046 b 264 1140 346 1046 324 1140 b 210 1050 222 1140 210 1092 l 113 1050 "},"˝":{"ha":693,"x_min":0,"x_max":0,"o":"m 435 1225 l 575 1225 l 442 1049 l 333 1049 m 214 1225 l 335 1225 l 236 1049 l 119 1049 "},"ẞ":{"ha":958,"x_min":0,"x_max":0,"o":"m 122 703 b 404 981 122 864 240 981 l 846 981 l 846 888 l 653 606 b 619 560 633 576 619 560 l 619 557 l 638 557 b 888 285 794 557 888 418 b 597 0 888 126 757 0 l 396 0 l 396 119 l 588 119 b 746 285 683 119 746 197 b 572 447 746 371 694 447 l 468 447 l 468 543 l 625 778 b 686 863 667 839 685 863 l 686 865 b 626 861 686 865 676 861 l 408 861 b 261 706 322 861 261 793 l 261 0 l 122 0 "},"–":{"ha":981,"x_min":0,"x_max":0,"o":"m 125 450 l 856 450 l 856 342 l 125 342 "},"—":{"ha":1258,"x_min":0,"x_max":0,"o":"m 125 450 l 1133 450 l 1133 342 l 125 342 "},"‘":{"ha":315,"x_min":0,"x_max":0,"o":"m 160 996 l 258 996 l 199 725 l 68 725 "},"’":{"ha":304,"x_min":0,"x_max":0,"o":"m 131 997 l 261 997 l 171 726 l 71 726 "},"‚":{"ha":339,"x_min":0,"x_max":0,"o":"m 118 146 l 244 146 l 154 -125 l 58 -125 "},"“":{"ha":513,"x_min":0,"x_max":0,"o":"m 356 996 l 456 996 l 396 725 l 264 725 m 160 996 l 260 996 l 200 725 l 68 725 "},"”":{"ha":500,"x_min":0,"x_max":0,"o":"m 326 997 l 458 997 l 368 726 l 267 726 m 131 997 l 263 997 l 171 726 l 71 726 "},"„":{"ha":532,"x_min":0,"x_max":0,"o":"m 310 146 l 438 146 l 347 -125 l 250 -125 m 118 146 l 244 146 l 154 -125 l 58 -125 "},"†":{"ha":586,"x_min":0,"x_max":0,"o":"m 226 596 l 58 596 l 58 703 l 226 703 l 226 981 l 356 981 l 356 703 l 528 703 l 528 596 l 356 596 l 356 -69 l 226 -69 "},"‡":{"ha":636,"x_min":0,"x_max":0,"o":"m 83 346 l 251 346 l 251 596 l 83 596 l 83 703 l 251 703 l 251 981 l 381 981 l 381 703 l 553 703 l 553 596 l 381 596 l 381 346 l 553 346 l 553 238 l 381 238 l 381 -69 l 251 -69 l 251 238 l 83 238 "},"•":{"ha":571,"x_min":0,"x_max":0,"o":"m 286 189 b 71 404 167 189 71 285 b 286 619 71 524 167 619 b 500 404 404 619 500 524 b 286 189 500 285 404 189 "},"…":{"ha":1069,"x_min":0,"x_max":0,"o":"m 826 143 l 964 143 l 964 0 l 826 0 m 465 143 l 604 143 l 604 0 l 465 0 m 106 143 l 243 143 l 243 0 l 106 0 "},"‰":{"ha":1549,"x_min":0,"x_max":0,"o":"m 276 586 b 67 792 160 586 67 678 b 276 997 67 904 160 997 b 488 792 393 997 488 904 b 276 586 488 678 393 586 m 838 981 l 968 981 l 218 0 l 88 0 m 276 689 b 379 792 335 689 379 733 b 276 896 379 849 335 896 b 174 792 218 896 174 849 b 276 689 174 733 218 689 m 1063 189 b 1272 394 1063 301 1156 394 b 1483 189 1389 394 1483 301 b 1272 -17 1483 75 1389 -17 b 1063 189 1156 -17 1063 75 m 569 189 b 781 394 569 301 663 394 b 992 189 896 394 992 301 b 781 -17 992 75 896 -17 b 569 189 663 -17 569 75 m 1169 189 b 1272 86 1169 131 1214 86 b 1375 189 1331 86 1375 131 b 1272 293 1375 246 1331 293 b 1169 189 1214 293 1169 246 m 678 189 b 781 86 678 131 722 86 b 883 189 838 86 883 131 b 781 293 883 246 838 293 b 678 189 722 293 678 246 "},"‹":{"ha":493,"x_min":0,"x_max":0,"o":"m 61 392 l 289 678 l 424 678 l 196 392 l 424 107 l 289 107 "},"›":{"ha":493,"x_min":0,"x_max":0,"o":"m 297 392 l 69 678 l 204 678 l 432 392 l 204 107 l 69 107 "},"⁄":{"ha":233,"x_min":0,"x_max":0,"o":"m -168 0 l 299 981 l 403 981 l -64 0 "},"€":{"ha":821,"x_min":0,"x_max":0,"o":"m 53 446 l 129 446 b 129 546 126 471 125 515 l 53 546 l 53 635 l 146 635 b 615 997 201 846 386 997 b 756 981 693 997 756 981 l 722 854 b 613 869 722 854 671 869 b 292 635 457 869 338 776 l 682 635 l 664 546 l 272 546 b 271 446 267 515 267 478 l 646 446 l 628 358 l 294 358 b 618 114 338 213 463 114 b 744 132 688 114 744 132 l 771 7 b 615 -17 771 7 704 -17 b 144 358 379 -17 196 138 l 53 358 "},"™":{"ha":1306,"x_min":0,"x_max":0,"o":"m 653 981 l 749 981 l 893 661 b 913 603 904 636 913 603 l 915 603 b 933 661 915 603 924 636 l 1078 981 l 1175 981 l 1222 369 l 1118 369 l 1089 735 b 1090 776 1088 756 1090 776 l 1088 776 l 956 482 l 871 482 l 739 776 l 736 776 b 738 735 736 776 739 756 l 708 369 l 604 369 m 243 888 l 32 888 l 32 981 l 560 981 l 560 888 l 349 888 l 349 369 l 243 369 "},"−":{"ha":851,"x_min":0,"x_max":0,"o":"m 67 450 l 785 450 l 785 342 l 67 342 "},"∞":{"ha":706,"x_min":0,"x_max":0,"o":"m 353 232 b 100 485 214 232 100 346 b 353 736 100 625 214 736 b 606 485 493 736 606 625 b 353 232 606 346 493 232 "},"≈":{"ha":851,"x_min":0,"x_max":0,"o":"m 79 528 b 289 629 126 578 204 629 b 564 532 419 629 465 532 b 717 608 621 532 679 568 l 774 526 b 564 426 726 478 649 426 b 289 524 433 426 388 524 b 136 446 231 524 174 485 m 79 265 b 289 367 126 315 204 367 b 564 269 419 367 465 269 b 717 346 621 269 679 306 l 774 264 b 564 164 726 215 649 164 b 289 261 433 164 388 261 b 136 185 231 261 174 224 "},"≠":{"ha":851,"x_min":0,"x_max":0,"o":"m 247 210 l 94 210 l 94 318 l 319 318 l 431 472 l 94 472 l 94 581 l 503 581 l 617 740 l 688 692 l 607 581 l 757 581 l 757 472 l 535 472 l 425 318 l 757 318 l 757 210 l 351 210 l 242 54 l 169 101 "},"≤":{"ha":851,"x_min":0,"x_max":0,"o":"m 93 442 l 740 731 l 740 607 l 243 397 l 243 394 l 740 185 l 740 61 l 93 350 m 740 -132 l 740 -240 l 94 -240 l 94 -132 "},"≥":{"ha":851,"x_min":0,"x_max":0,"o":"m 111 185 l 608 394 l 608 397 l 111 607 l 111 731 l 760 442 l 760 350 l 111 61 m 757 -132 l 757 -240 l 111 -240 l 111 -132 "},"ﬀ":{"ha":933,"x_min":0,"x_max":0,"o":"m 610 594 l 276 594 l 276 0 l 143 0 l 143 594 l 56 594 l 56 703 l 143 703 l 143 726 b 407 988 143 958 318 988 b 458 983 438 988 458 983 l 458 868 b 424 871 458 868 444 871 b 276 724 372 871 276 854 l 276 703 l 610 703 l 610 726 b 874 988 610 958 785 988 b 925 983 904 988 925 983 l 925 868 b 890 871 925 868 911 871 b 743 724 839 871 743 854 l 743 703 l 910 703 l 910 594 l 743 594 l 743 0 l 610 0 "},"ﬁ":{"ha":813,"x_min":0,"x_max":0,"o":"m 572 594 l 276 594 l 276 0 l 143 0 l 143 594 l 56 594 l 56 703 l 143 703 l 143 726 b 407 988 143 958 318 988 b 458 983 438 988 458 983 l 458 868 b 424 871 458 868 444 871 b 276 724 372 871 276 854 l 276 703 l 707 703 l 707 0 l 572 0 m 571 981 l 707 981 l 707 843 l 571 843 "},"ﬂ":{"ha":835,"x_min":0,"x_max":0,"o":"m 143 585 l 56 585 l 56 693 l 143 693 l 143 726 b 407 988 143 958 318 988 b 458 983 438 988 458 983 l 458 868 b 424 871 458 868 444 871 b 276 724 372 871 276 854 l 276 693 l 443 693 l 443 585 l 276 585 l 276 0 l 143 0 m 564 981 l 699 981 l 699 215 b 774 115 699 131 732 115 b 797 117 786 115 797 117 l 797 -3 b 753 -6 797 -3 776 -6 b 564 192 676 -6 564 15 "},"ﬃ":{"ha":1279,"x_min":0,"x_max":0,"o":"m 610 594 l 276 594 l 276 0 l 143 0 l 143 594 l 56 594 l 56 703 l 143 703 l 143 726 b 407 988 143 958 318 988 b 458 983 438 988 458 983 l 458 868 b 424 871 458 868 444 871 b 276 724 372 871 276 854 l 276 703 l 610 703 l 610 726 b 874 988 610 958 785 988 b 925 983 904 988 925 983 l 925 868 b 890 871 925 868 911 871 b 743 724 839 871 743 854 l 743 703 l 1174 703 l 1174 0 l 1039 0 l 1039 594 l 743 594 l 743 0 l 610 0 m 1038 981 l 1174 981 l 1174 843 l 1038 843 "},"ﬄ":{"ha":1301,"x_min":0,"x_max":0,"o":"m 610 594 l 276 594 l 276 0 l 143 0 l 143 594 l 56 594 l 56 703 l 143 703 l 143 726 b 407 988 143 958 318 988 b 458 983 438 988 458 983 l 458 868 b 424 871 458 868 444 871 b 276 724 372 871 276 854 l 276 703 l 610 703 l 610 726 b 874 988 610 958 785 988 b 925 983 904 988 925 983 l 925 868 b 890 871 925 868 911 871 b 743 724 839 871 743 854 l 743 703 l 910 703 l 910 594 l 743 594 l 743 0 l 610 0 m 1031 981 l 1165 981 l 1165 215 b 1240 115 1165 131 1199 115 b 1264 117 1253 115 1264 117 l 1264 -3 b 1219 -6 1264 -3 1243 -6 b 1031 192 1143 -6 1031 15 "},"⁰":{"ha":540,"x_min":0,"x_max":0,"o":"m 269 574 b 51 892 104 574 51 713 b 269 1208 51 1069 104 1208 b 489 892 435 1208 489 1069 b 269 574 489 713 435 574 m 269 669 b 383 892 357 669 383 767 b 269 1111 383 1014 357 1111 b 157 892 182 1111 157 1014 b 269 669 157 767 182 669 "},"⁴":{"ha":540,"x_min":0,"x_max":0,"o":"m 319 736 l 31 736 l 31 806 l 310 1194 l 422 1194 l 422 828 l 507 828 l 507 736 l 422 736 l 422 588 l 319 588 m 319 828 l 319 999 b 324 1079 319 1035 324 1079 l 321 1079 b 281 1013 321 1079 301 1042 l 144 831 l 144 828 "},"⁵":{"ha":540,"x_min":0,"x_max":0,"o":"m 258 574 b 60 668 128 574 60 668 l 122 739 b 253 669 122 739 167 669 b 376 783 319 669 376 717 b 251 899 376 849 321 899 b 147 868 190 899 147 868 l 89 890 l 121 1194 l 443 1194 l 443 1101 l 207 1101 l 197 1015 b 190 971 194 988 190 971 l 193 971 b 271 985 193 971 225 985 b 482 783 394 985 482 893 b 258 574 482 672 393 574 "},"⁶":{"ha":540,"x_min":0,"x_max":0,"o":"m 286 574 b 57 856 156 574 57 683 b 332 1208 57 1015 142 1208 b 460 1178 406 1208 460 1178 l 426 1089 b 335 1111 426 1089 381 1111 b 174 938 247 1111 190 1033 l 176 938 b 288 981 203 963 249 981 b 490 782 410 981 490 897 b 286 574 490 658 406 574 m 286 669 b 386 783 350 669 386 721 b 274 900 386 850 343 900 b 165 826 215 900 165 863 b 286 669 165 753 215 669 "},"⁷":{"ha":540,"x_min":0,"x_max":0,"o":"m 324 1036 b 363 1101 344 1075 363 1101 l 363 1104 b 301 1101 363 1104 336 1101 l 64 1101 l 64 1194 l 483 1194 l 483 1124 l 194 588 l 81 588 "},"⁸":{"ha":540,"x_min":0,"x_max":0,"o":"m 50 763 b 147 919 50 843 117 899 b 79 1046 107 949 79 988 b 275 1208 79 1154 176 1208 b 472 1043 372 1208 472 1153 b 396 888 472 963 406 897 b 485 750 446 858 485 818 b 269 574 485 644 385 574 b 50 763 160 574 50 638 m 379 754 b 218 881 379 818 297 843 b 151 767 193 861 151 822 b 269 664 151 701 210 664 b 379 754 324 664 379 700 m 181 1042 b 321 924 181 981 249 954 b 374 1038 336 939 374 982 b 274 1118 374 1090 322 1118 b 181 1042 226 1118 181 1093 "},"⁹":{"ha":540,"x_min":0,"x_max":0,"o":"m 50 1000 b 253 1208 50 1124 135 1208 b 482 926 385 1208 482 1099 b 208 574 482 767 399 574 b 79 604 135 574 79 604 l 114 693 b 204 671 114 693 160 671 b 365 844 293 671 349 749 l 363 844 b 253 801 338 819 290 801 b 50 1000 129 801 50 886 m 154 1000 b 267 882 154 933 197 882 b 375 956 325 882 375 919 b 253 1113 375 1029 325 1113 b 154 1000 189 1113 154 1061 "},"₀":{"ha":540,"x_min":0,"x_max":0,"o":"m 269 -232 b 51 86 104 -232 51 -93 b 269 403 51 264 104 403 b 489 86 435 403 489 264 b 269 -232 489 -93 435 -232 m 269 -136 b 383 86 357 -136 383 -39 b 269 306 383 208 357 306 b 157 86 182 306 157 208 b 269 -136 157 -39 182 -136 "},"₁":{"ha":540,"x_min":0,"x_max":0,"o":"m 99 -126 l 228 -126 l 228 219 b 231 256 228 239 231 256 l 228 256 b 203 225 228 256 222 243 l 154 178 l 90 246 l 238 389 l 332 389 l 332 -126 l 458 -126 l 458 -218 l 99 -218 "},"₂":{"ha":540,"x_min":0,"x_max":0,"o":"m 69 -218 b 65 -168 68 -201 65 -183 b 360 217 65 67 360 78 b 260 307 360 268 318 307 b 143 240 192 307 143 240 l 75 303 b 265 403 75 303 138 403 b 465 221 379 403 465 331 b 179 -126 465 18 188 4 l 475 -126 l 475 -218 l 69 -218 "},"₃":{"ha":540,"x_min":0,"x_max":0,"o":"m 260 -233 b 56 -142 119 -233 56 -142 l 114 -68 b 256 -137 114 -68 164 -137 b 371 -32 314 -137 371 -93 b 247 67 371 32 310 67 l 200 67 l 178 119 l 301 263 b 335 296 314 278 335 296 l 335 299 b 285 294 335 299 308 294 l 89 294 l 89 388 l 465 388 l 465 321 l 314 146 b 476 -32 397 133 476 79 b 260 -233 476 -139 388 -233 "},"₄":{"ha":540,"x_min":0,"x_max":0,"o":"m 319 -69 l 31 -69 l 31 0 l 310 389 l 422 389 l 422 22 l 507 22 l 507 -69 l 422 -69 l 422 -218 l 319 -218 m 319 22 l 319 193 b 324 274 319 229 324 274 l 321 274 b 281 207 321 274 301 236 l 144 25 l 144 22 "},"₅":{"ha":540,"x_min":0,"x_max":0,"o":"m 258 -232 b 60 -137 128 -232 60 -137 l 122 -67 b 253 -136 122 -67 167 -136 b 376 -22 319 -136 376 -89 b 251 93 376 43 321 93 b 147 63 190 93 147 63 l 89 85 l 121 389 l 443 389 l 443 296 l 207 296 l 197 210 b 190 165 194 182 190 165 l 193 165 b 271 179 193 165 225 179 b 482 -22 394 179 482 88 b 258 -232 482 -133 393 -232 "},"₆":{"ha":540,"x_min":0,"x_max":0,"o":"m 286 -232 b 57 50 156 -232 57 -122 b 332 403 57 210 142 403 b 460 372 406 403 460 372 l 426 283 b 335 306 426 283 381 306 b 174 132 247 306 190 228 l 176 132 b 288 175 203 157 249 175 b 490 -24 410 175 490 92 b 286 -232 490 -147 406 -232 m 286 -136 b 386 -22 350 -136 386 -85 b 274 94 386 44 343 94 b 165 21 215 94 165 57 b 286 -136 165 -53 215 -136 "},"₇":{"ha":540,"x_min":0,"x_max":0,"o":"m 324 229 b 363 294 344 268 363 294 l 363 297 b 301 294 363 297 336 294 l 64 294 l 64 388 l 483 388 l 483 317 l 194 -219 l 81 -219 "},"₈":{"ha":540,"x_min":0,"x_max":0,"o":"m 50 -42 b 147 115 50 39 117 94 b 79 242 107 144 79 183 b 275 404 79 350 176 404 b 472 239 372 404 472 349 b 396 83 472 158 406 93 b 485 -54 446 54 485 14 b 269 -231 485 -160 385 -231 b 50 -42 160 -231 50 -167 m 379 -50 b 218 76 379 14 297 39 b 151 -37 193 57 151 18 b 269 -140 151 -103 210 -140 b 379 -50 324 -140 379 -104 m 181 238 b 321 119 181 176 249 150 b 374 233 336 135 374 178 b 274 314 374 286 322 314 b 181 238 226 314 181 289 "},"₉":{"ha":540,"x_min":0,"x_max":0,"o":"m 50 194 b 253 403 50 318 135 403 b 482 121 385 403 482 293 b 208 -232 482 -39 399 -232 b 79 -201 135 -232 79 -201 l 114 -112 b 204 -135 114 -112 160 -135 b 365 39 293 -135 349 -57 l 363 39 b 253 -4 338 14 290 -4 b 50 194 129 -4 50 81 m 154 194 b 267 76 154 128 197 76 b 375 150 325 76 375 114 b 253 307 375 224 325 307 b 154 194 189 307 154 256 "}," ":{"ha":19,"x_min":0,"x_max":0,"o":""}," ":{"ha":357,"x_min":0,"x_max":0,"o":""},"­":{"ha":599,"x_min":0,"x_max":0,"o":"m 97 456 l 503 456 l 503 336 l 97 336 "}}}
